<?xml version="1.0" encoding="UTF-8"?>
<svg xmlns="http://www.w3.org/2000/svg" width="900" height="430" viewBox="0 0 900 430" font-family="Helvetica, Arial, sans-serif">
<rect width="900" height="430" fill="#ffffff"/>
<rect x="72" y="46" width="770" height="290" fill="#ffffff" stroke="none"/>
<line x1="72.0" y1="46" x2="72.0" y2="336" stroke="#e0e0e0" stroke-width="1"/>
<line x1="168.2" y1="46" x2="168.2" y2="336" stroke="#e0e0e0" stroke-width="1"/>
<line x1="264.5" y1="46" x2="264.5" y2="336" stroke="#e0e0e0" stroke-width="1"/>
<line x1="360.8" y1="46" x2="360.8" y2="336" stroke="#e0e0e0" stroke-width="1"/>
<line x1="457.0" y1="46" x2="457.0" y2="336" stroke="#e0e0e0" stroke-width="1"/>
<line x1="553.2" y1="46" x2="553.2" y2="336" stroke="#e0e0e0" stroke-width="1"/>
<line x1="649.5" y1="46" x2="649.5" y2="336" stroke="#e0e0e0" stroke-width="1"/>
<line x1="745.8" y1="46" x2="745.8" y2="336" stroke="#e0e0e0" stroke-width="1"/>
<line x1="842.0" y1="46" x2="842.0" y2="336" stroke="#e0e0e0" stroke-width="1"/>
<line x1="72" y1="336.0" x2="842" y2="336.0" stroke="#e0e0e0" stroke-width="1"/>
<line x1="72" y1="287.7" x2="842" y2="287.7" stroke="#e0e0e0" stroke-width="1"/>
<line x1="72" y1="239.3" x2="842" y2="239.3" stroke="#e0e0e0" stroke-width="1"/>
<line x1="72" y1="191.0" x2="842" y2="191.0" stroke="#e0e0e0" stroke-width="1"/>
<line x1="72" y1="142.7" x2="842" y2="142.7" stroke="#e0e0e0" stroke-width="1"/>
<line x1="72" y1="94.3" x2="842" y2="94.3" stroke="#e0e0e0" stroke-width="1"/>
<line x1="72" y1="46.0" x2="842" y2="46.0" stroke="#e0e0e0" stroke-width="1"/>
<polyline points="72.0,326.3 73.4,325.8 74.7,325.4 76.1,324.9 77.5,324.4 78.9,323.9 80.3,323.5 81.6,323.0 83.0,322.5 84.4,322.0 85.8,321.6 87.1,321.1 88.5,320.6 89.9,320.2 91.2,319.7 92.6,319.2 94.0,318.7 95.4,318.2 96.8,317.8 98.1,317.3 99.5,316.8 100.9,316.3 102.2,315.8 103.6,315.3 105.0,314.9 106.4,314.4 107.8,313.9 109.1,313.4 110.5,312.9 111.9,312.5 113.2,312.0 114.6,311.5 116.0,311.0 117.4,310.5 118.7,310.0 120.1,309.6 121.5,309.1 122.9,308.6 124.2,308.1 125.6,307.6 127.0,307.1 128.4,306.7 129.8,306.2 131.1,305.7 132.5,305.2 133.9,304.7 135.3,304.2 136.6,303.8 138.0,303.3 139.4,302.8 140.8,302.3 142.1,301.8 143.5,301.3 144.9,300.9 146.2,300.4 147.6,299.9 149.0,299.4 150.4,298.9 151.8,298.4 153.1,298.0 154.5,297.5 155.9,297.0 157.2,296.5 158.6,296.0 160.0,295.5 161.4,295.1 162.8,294.6 164.1,294.1 165.5,293.6 166.9,293.1 168.2,292.6 169.6,292.2 171.0,291.7 172.4,291.2 173.8,290.7 175.1,290.2 176.5,289.7 177.9,289.3 179.2,288.8 180.6,288.3 182.0,287.8 183.4,287.3 184.8,286.8 186.1,286.4 187.5,285.9 188.9,285.4 190.3,284.9 191.6,284.4 193.0,283.9 194.4,283.5 195.8,283.0 197.1,282.5 198.5,282.0 199.9,281.5 201.2,281.0 202.6,280.6 204.0,280.1 205.4,279.6 206.8,279.1 208.1,278.6 209.5,278.1 210.9,277.7 212.2,277.2 213.6,276.7 215.0,276.2 216.4,275.7 217.8,275.2 219.1,274.8 220.5,274.3 221.9,273.8 223.2,273.3 224.6,272.8 226.0,272.3 227.4,271.9 228.7,271.4 230.1,270.9 231.5,270.4 232.9,269.9 234.2,269.4 235.6,269.0 237.0,268.5 238.4,268.0 239.7,267.5 241.1,267.0 242.5,266.5 243.9,266.1 245.2,265.6 246.6,265.1 248.0,264.6 249.4,264.1 250.8,263.6 252.1,263.2 253.5,262.7 254.9,262.2 256.2,261.7 257.6,261.2 259.0,260.7 260.4,260.3 261.8,259.8 263.1,259.3 264.5,258.8 265.9,258.3 267.2,257.8 268.6,257.4 270.0,256.9 271.4,256.4 272.8,255.9 274.1,255.4 275.5,254.9 276.9,254.5 278.2,254.0 279.6,253.5 281.0,253.0 282.4,252.5 283.8,252.0 285.1,251.6 286.5,251.1 287.9,250.6 289.2,250.1 290.6,249.6 292.0,249.1 293.4,248.7 294.8,248.2 296.1,247.7 297.5,247.2 298.9,246.7 300.2,246.2 301.6,245.8 303.0,245.3 304.4,244.8 305.8,244.3 307.1,243.8 308.5,243.3 309.9,242.9 311.2,242.4 312.6,241.9 314.0,241.4 315.4,240.9 316.8,240.4 318.1,240.0 319.5,239.5 320.9,239.0 322.2,238.5 323.6,238.0 325.0,237.5 326.4,237.1 327.8,236.6 329.1,236.1 330.5,235.6 331.9,235.1 333.2,234.6 334.6,234.2 336.0,233.7 337.4,233.2 338.8,232.7 340.1,232.2 341.5,231.7 342.9,231.3 344.2,230.8 345.6,230.3 347.0,229.8 348.4,229.3 349.8,228.8 351.1,228.4 352.5,227.9 353.9,227.4 355.2,226.9 356.6,226.4 358.0,225.9 359.4,225.5 360.8,225.0 362.1,224.5 363.5,224.0 364.9,223.5 366.2,223.0 367.6,222.6 369.0,222.1 370.4,221.6 371.8,221.1 373.1,220.6 374.5,220.1 375.9,219.7 377.2,219.2 378.6,218.7 380.0,218.2 381.4,217.7 382.8,217.2 384.1,216.8 385.5,216.3 386.9,215.8 388.2,215.3 389.6,214.8 391.0,214.3 392.4,213.9 393.7,213.4 395.1,212.9 396.5,212.4 397.9,211.9 399.2,211.4 400.6,211.0 402.0,210.5 403.4,210.0 404.8,209.5 406.1,209.0 407.5,208.5 408.9,208.1 410.3,207.6 411.6,207.1 413.0,206.6 414.4,206.1 415.8,205.6 417.1,205.2 418.5,204.7 419.9,204.2 421.2,203.7 422.6,203.2 424.0,202.7 425.4,202.3 426.8,201.8 428.1,201.3 429.5,200.8 430.9,200.3 432.2,199.8 433.6,199.4 435.0,198.9 436.4,198.4 437.8,197.9 439.1,197.4 440.5,196.9 441.9,196.5 443.2,196.0 444.6,195.5 446.0,195.0 447.4,194.5 448.8,194.0 450.1,193.6 451.5,193.1 452.9,192.6 454.2,192.1 455.6,191.6 457.0,191.1 458.4,190.7 459.8,190.2 461.1,189.7 462.5,189.2 463.9,188.7 465.3,188.2 466.6,187.8 468.0,187.3 469.4,186.8 470.8,186.3 472.1,185.8 473.5,185.3 474.9,184.9 476.2,184.4 477.6,183.9 479.0,183.4 480.4,182.9 481.8,182.5 483.1,182.0 484.5,181.5 485.9,181.0 487.2,180.5 488.6,180.0 490.0,179.6 491.4,179.1 492.8,178.6 494.1,178.1 495.5,177.6 496.9,177.1 498.2,176.7 499.6,176.2 501.0,175.7 502.4,175.2 503.8,174.7 505.1,174.2 506.5,173.8 507.9,173.3 509.2,172.8 510.6,172.3 512.0,171.8 513.4,171.3 514.8,170.9 516.1,170.4 517.5,169.9 518.9,169.4 520.2,168.9 521.6,168.4 523.0,168.0 524.4,167.5 525.8,167.0 527.1,166.5 528.5,166.0 529.9,165.5 531.2,165.1 532.6,164.6 534.0,164.1 535.4,163.6 536.8,163.1 538.1,162.6 539.5,162.2 540.9,161.7 542.2,161.2 543.6,160.7 545.0,160.2 546.4,159.7 547.8,159.3 549.1,158.8 550.5,158.3 551.9,157.8 553.2,157.3 554.6,156.8 556.0,156.4 557.4,155.9 558.8,155.4 560.1,154.9 561.5,154.4 562.9,153.9 564.2,153.5 565.6,153.0 567.0,152.5 568.4,152.0 569.8,151.5 571.1,151.0 572.5,150.6 573.9,150.1 575.2,149.6 576.6,149.1 578.0,148.6 579.4,148.1 580.8,147.7 582.1,147.2 583.5,146.7 584.9,146.2 586.2,145.7 587.6,145.2 589.0,144.8 590.4,144.3 591.8,143.8 593.1,143.3 594.5,142.8 595.9,142.3 597.2,141.9 598.6,141.4 600.0,140.9 601.4,140.4 602.8,139.9 604.1,139.4 605.5,139.0 606.9,138.5 608.2,138.0 609.6,137.5 611.0,137.0 612.4,136.5 613.8,136.1 615.1,135.6 616.5,135.1 617.9,134.6 619.2,134.1 620.6,133.6 622.0,133.2 623.4,132.7 624.8,132.2 626.1,131.7 627.5,131.2 628.9,130.7 630.2,130.3 631.6,129.8 633.0,129.3 634.4,128.8 635.8,128.3 637.1,127.8 638.5,127.4 639.9,126.9 641.2,126.4 642.6,125.9 644.0,125.4 645.4,124.9 646.7,124.5 648.1,124.0 649.5,123.5 650.9,123.0 652.3,122.5 653.6,122.0 655.0,121.6 656.4,121.1 657.8,120.6 659.1,120.1 660.5,119.6 661.9,119.1 663.2,118.7 664.6,118.2 666.0,117.7 667.4,117.2 668.8,116.7 670.1,116.2 671.5,115.8 672.9,115.3 674.2,114.8 675.6,114.3 677.0,113.8 678.4,113.3 679.8,112.9 681.1,112.4 682.5,111.9 683.9,111.4 685.2,111.0 686.6,110.5 688.0,110.0 689.4,109.6 690.8,109.1 692.1,108.6 693.5,108.2 694.9,107.7 696.2,107.2 697.6,106.8 699.0,106.3 700.4,105.8 701.8,105.4 703.1,104.9 704.5,104.4 705.9,104.0 707.2,103.5 708.6,103.1 710.0,102.6 711.4,102.1 712.8,101.7 714.1,101.2 715.5,100.8 716.9,100.7 718.2,100.9 719.6,101.5 721.0,102.2 722.4,103.1 723.8,103.9 725.1,104.8 726.5,105.6 727.9,106.5 729.2,107.3 730.6,108.0 732.0,108.8 733.4,109.4 734.8,110.1 736.1,110.7 737.5,111.4 738.9,111.9 740.2,112.6 741.6,113.3 743.0,114.0 744.4,114.9 745.8,116.0 747.1,332.9 748.5,332.9 749.9,332.9 751.2,332.9 752.6,332.9 754.0,332.9 755.4,332.9 756.8,332.9 758.1,332.9 759.5,332.9 760.9,332.9 762.2,332.9 763.6,332.9 765.0,332.9 766.4,332.9 767.8,332.9 769.1,332.9 770.5,332.9 771.9,332.9 773.2,332.9 774.6,332.9 776.0,332.9 777.4,332.9 778.8,332.9 780.1,332.9 781.5,332.9 782.9,332.9 784.2,332.9 785.6,332.9 787.0,332.9 788.4,332.9 789.8,332.9 791.1,332.9 792.5,332.9 793.9,332.9 795.2,332.9 796.6,332.9 798.0,332.9 799.4,332.9 800.8,332.9 802.1,332.9 803.5,332.9 804.9,332.9 806.2,332.9 807.6,332.9 809.0,332.9 810.4,332.9 811.7,332.9 813.1,332.9 814.5,332.9 815.9,332.9 817.2,332.9 818.6,332.9 820.0,332.9 821.4,332.9 822.8,332.9 824.1,332.9 825.5,332.9 826.9,332.9 828.2,332.9 829.6,332.9 831.0,332.9 832.4,332.9 833.8,332.9 835.1,332.9 836.5,332.9 837.9,332.9 839.2,332.9 840.6,332.9 842.0,332.9" fill="none" stroke="#1f5c99" stroke-width="1.6" stroke-linejoin="round"/>
<polyline points="72.0,328.6 73.4,328.5 74.7,328.6 76.1,328.5 77.5,328.6 78.9,328.5 80.3,328.6 81.6,328.5 83.0,328.6 84.4,328.5 85.8,328.6 87.1,328.5 88.5,328.6 89.9,328.5 91.2,328.6 92.6,328.5 94.0,328.6 95.4,328.5 96.8,328.6 98.1,328.5 99.5,328.6 100.9,328.5 102.2,328.6 103.6,328.5 105.0,328.6 106.4,328.5 107.8,328.6 109.1,328.5 110.5,328.6 111.9,328.5 113.2,328.6 114.6,328.5 116.0,328.6 117.4,328.5 118.7,328.6 120.1,328.5 121.5,328.6 122.9,328.5 124.2,328.6 125.6,328.5 127.0,328.6 128.4,328.5 129.8,328.6 131.1,328.5 132.5,328.6 133.9,328.5 135.3,328.6 136.6,328.5 138.0,328.6 139.4,328.5 140.8,328.6 142.1,328.5 143.5,328.6 144.9,328.5 146.2,328.6 147.6,328.5 149.0,328.6 150.4,328.5 151.8,328.6 153.1,328.5 154.5,328.6 155.9,328.6 157.2,328.6 158.6,328.6 160.0,328.6 161.4,328.6 162.8,328.6 164.1,328.6 165.5,328.6 166.9,328.6 168.2,328.6 169.6,328.6 171.0,328.6 172.4,328.6 173.8,328.6 175.1,328.6 176.5,328.6 177.9,328.6 179.2,328.6 180.6,328.6 182.0,328.3 183.4,327.6 184.8,326.9 186.1,326.2 187.5,325.5 188.9,324.8 190.3,324.2 191.6,323.5 193.0,322.8 194.4,322.1 195.8,321.5 197.1,320.8 198.5,320.2 199.9,319.5 201.2,318.8 202.6,318.2 204.0,317.5 205.4,316.8 206.8,316.1 208.1,315.4 209.5,314.7 210.9,314.1 212.2,313.4 213.6,312.7 215.0,312.0 216.4,311.3 217.8,310.6 219.1,309.9 220.5,309.3 221.9,308.6 223.2,307.9 224.6,307.2 226.0,306.5 227.4,305.8 228.7,305.1 230.1,304.5 231.5,303.8 232.9,303.1 234.2,302.4 235.6,301.7 237.0,301.0 238.4,300.3 239.7,299.6 241.1,299.0 242.5,298.3 243.9,297.6 245.2,296.9 246.6,296.2 248.0,295.5 249.4,294.8 250.8,294.2 252.1,293.5 253.5,292.8 254.9,292.1 256.2,291.4 257.6,290.7 259.0,290.0 260.4,289.4 261.8,288.7 263.1,288.0 264.5,287.3 265.9,286.6 267.2,285.9 268.6,285.2 270.0,284.5 271.4,283.9 272.8,283.2 274.1,282.5 275.5,281.8 276.9,281.1 278.2,280.4 279.6,279.7 281.0,279.1 282.4,278.4 283.8,277.7 285.1,277.0 286.5,276.3 287.9,275.6 289.2,274.9 290.6,274.3 292.0,273.6 293.4,272.9 294.8,272.2 296.1,271.5 297.5,270.8 298.9,270.1 300.2,269.5 301.6,268.8 303.0,268.1 304.4,267.4 305.8,266.7 307.1,266.0 308.5,265.3 309.9,264.6 311.2,264.0 312.6,263.3 314.0,262.6 315.4,261.9 316.8,261.2 318.1,260.5 319.5,259.8 320.9,259.2 322.2,258.5 323.6,257.8 325.0,257.1 326.4,256.4 327.8,255.7 329.1,255.0 330.5,254.4 331.9,253.7 333.2,253.0 334.6,252.3 336.0,251.6 337.4,250.9 338.8,250.2 340.1,249.5 341.5,248.9 342.9,248.2 344.2,247.5 345.6,246.8 347.0,246.1 348.4,245.4 349.8,244.7 351.1,244.1 352.5,243.4 353.9,242.7 355.2,242.0 356.6,241.3 358.0,240.6 359.4,239.9 360.8,239.3 362.1,238.6 363.5,237.9 364.9,237.2 366.2,236.5 367.6,235.8 369.0,235.1 370.4,234.4 371.8,233.8 373.1,233.1 374.5,232.4 375.9,231.7 377.2,231.0 378.6,230.3 380.0,229.6 381.4,229.0 382.8,228.3 384.1,227.6 385.5,226.9 386.9,226.2 388.2,225.5 389.6,224.8 391.0,224.2 392.4,223.5 393.7,222.8 395.1,222.1 396.5,221.4 397.9,220.7 399.2,220.0 400.6,219.4 402.0,218.7 403.4,218.0 404.8,217.3 406.1,216.6 407.5,215.9 408.9,215.2 410.3,214.5 411.6,213.9 413.0,213.2 414.4,212.5 415.8,211.8 417.1,211.1 418.5,210.4 419.9,209.7 421.2,209.1 422.6,208.4 424.0,207.7 425.4,207.0 426.8,206.3 428.1,205.6 429.5,204.9 430.9,204.3 432.2,203.6 433.6,202.9 435.0,202.2 436.4,201.5 437.8,200.8 439.1,200.1 440.5,199.4 441.9,198.8 443.2,198.1 444.6,197.4 446.0,196.7 447.4,196.0 448.8,195.3 450.1,194.6 451.5,194.0 452.9,193.3 454.2,192.6 455.6,191.9 457.0,191.2 458.4,190.5 459.8,189.8 461.1,189.2 462.5,188.5 463.9,187.8 465.3,187.1 466.6,186.4 468.0,185.7 469.4,185.0 470.8,184.3 472.1,183.7 473.5,183.0 474.9,182.3 476.2,181.6 477.6,180.9 479.0,180.2 480.4,179.5 481.8,178.9 483.1,178.2 484.5,177.5 485.9,176.8 487.2,176.1 488.6,175.4 490.0,174.7 491.4,174.1 492.8,173.4 494.1,172.7 495.5,172.0 496.9,171.3 498.2,170.6 499.6,169.9 501.0,169.3 502.4,168.6 503.8,167.9 505.1,167.2 506.5,166.5 507.9,165.8 509.2,165.1 510.6,164.4 512.0,163.8 513.4,163.1 514.8,162.4 516.1,161.7 517.5,161.0 518.9,160.3 520.2,159.6 521.6,159.0 523.0,158.3 524.4,157.6 525.8,156.9 527.1,156.2 528.5,155.5 529.9,154.8 531.2,154.2 532.6,153.5 534.0,152.8 535.4,152.1 536.8,151.4 538.1,150.7 539.5,150.0 540.9,149.3 542.2,148.7 543.6,148.0 545.0,147.3 546.4,146.6 547.8,145.9 549.1,145.2 550.5,144.5 551.9,143.9 553.2,143.2 554.6,142.5 556.0,141.8 557.4,141.1 558.8,140.4 560.1,139.7 561.5,139.1 562.9,138.4 564.2,137.7 565.6,137.0 567.0,136.3 568.4,135.6 569.8,134.9 571.1,134.2 572.5,133.6 573.9,132.9 575.2,132.2 576.6,131.5 578.0,130.8 579.4,130.1 580.8,129.4 582.1,128.8 583.5,128.1 584.9,127.4 586.2,126.7 587.6,126.0 589.0,125.3 590.4,124.6 591.8,124.0 593.1,123.3 594.5,122.6 595.9,121.9 597.2,121.2 598.6,120.5 600.0,119.8 601.4,119.1 602.8,118.5 604.1,117.8 605.5,117.1 606.9,116.4 608.2,115.7 609.6,115.0 611.0,114.3 612.4,113.7 613.8,113.0 615.1,112.3 616.5,111.6 617.9,110.9 619.2,110.2 620.6,109.5 622.0,108.9 623.4,108.2 624.8,107.5 626.1,106.8 627.5,106.1 628.9,105.4 630.2,104.7 631.6,104.1 633.0,103.4 634.4,102.7 635.8,102.0 637.1,101.3 638.5,100.6 639.9,99.9 641.2,99.2 642.6,98.6 644.0,97.9 645.4,97.2 646.7,96.5 648.1,95.8 649.5,95.1 650.9,94.4 652.3,93.8 653.6,93.1 655.0,92.4 656.4,91.7 657.8,91.0 659.1,90.3 660.5,89.6 661.9,89.0 663.2,88.3 664.6,87.6 666.0,86.9 667.4,86.2 668.8,85.5 670.1,84.8 671.5,84.1 672.9,83.5 674.2,82.8 675.6,82.1 677.0,81.4 678.4,80.7 679.8,80.0 681.1,79.4 682.5,78.7 683.9,78.0 685.2,77.4 686.6,76.7 688.0,76.0 689.4,75.4 690.8,74.7 692.1,74.0 693.5,73.4 694.9,72.7 696.2,72.0 697.6,71.4 699.0,70.7 700.4,70.1 701.8,69.4 703.1,68.7 704.5,68.1 705.9,67.4 707.2,66.8 708.6,66.1 710.0,65.5 711.4,65.0 712.8,64.6 714.1,64.3 715.5,64.2 716.9,64.1 718.2,64.2 719.6,64.5 721.0,65.1 722.4,66.1 723.8,67.4 725.1,68.6 726.5,69.8 727.9,71.0 729.2,72.1 730.6,73.2 732.0,74.2 733.4,75.2 734.8,76.1 736.1,77.0 737.5,77.9 738.9,78.7 740.2,79.6 741.6,80.6 743.0,81.7 744.4,83.0 745.8,84.6 747.1,328.5 748.5,328.6 749.9,328.5 751.2,328.6 752.6,328.5 754.0,328.6 755.4,328.5 756.8,328.6 758.1,328.5 759.5,328.6 760.9,328.5 762.2,328.6 763.6,328.5 765.0,328.6 766.4,328.5 767.8,328.6 769.1,328.5 770.5,328.6 771.9,328.5 773.2,328.6 774.6,328.5 776.0,328.6 777.4,328.5 778.8,328.6 780.1,328.5 781.5,328.6 782.9,328.5 784.2,328.6 785.6,328.5 787.0,328.6 788.4,328.5 789.8,328.6 791.1,328.5 792.5,328.6 793.9,328.5 795.2,328.6 796.6,328.5 798.0,328.6 799.4,328.5 800.8,328.6 802.1,328.5 803.5,328.6 804.9,328.5 806.2,328.6 807.6,328.5 809.0,328.6 810.4,328.5 811.7,328.6 813.1,328.5 814.5,328.6 815.9,328.5 817.2,328.6 818.6,328.5 820.0,328.6 821.4,328.5 822.8,328.6 824.1,328.5 825.5,328.6 826.9,328.5 828.2,328.6 829.6,328.5 831.0,328.6 832.4,328.5 833.8,328.6 835.1,328.5 836.5,328.6 837.9,328.5 839.2,328.6 840.6,328.5 842.0,328.6" fill="none" stroke="#2e7d4f" stroke-width="1.6" stroke-linejoin="round"/>
<polyline points="72.0,327.5 73.4,327.5 74.7,327.5 76.1,327.5 77.5,327.5 78.9,327.5 80.3,327.5 81.6,327.5 83.0,327.5 84.4,327.5 85.8,327.5 87.1,327.5 88.5,327.5 89.9,327.5 91.2,327.5 92.6,327.5 94.0,327.5 95.4,327.5 96.8,327.5 98.1,327.5 99.5,327.5 100.9,327.5 102.2,327.5 103.6,327.5 105.0,327.5 106.4,327.5 107.8,327.5 109.1,327.5 110.5,327.5 111.9,327.5 113.2,327.5 114.6,327.5 116.0,327.5 117.4,327.5 118.7,327.5 120.1,327.5 121.5,327.5 122.9,327.5 124.2,327.5 125.6,327.5 127.0,327.5 128.4,327.5 129.8,327.5 131.1,327.5 132.5,327.5 133.9,327.5 135.3,327.5 136.6,327.5 138.0,327.5 139.4,327.5 140.8,327.5 142.1,327.5 143.5,327.5 144.9,327.5 146.2,327.5 147.6,327.5 149.0,327.5 150.4,327.5 151.8,327.5 153.1,327.5 154.5,327.5 155.9,327.5 157.2,327.5 158.6,327.5 160.0,327.5 161.4,327.5 162.8,327.5 164.1,327.5 165.5,327.5 166.9,327.5 168.2,327.5 169.6,327.5 171.0,327.5 172.4,327.5 173.8,327.5 175.1,327.5 176.5,327.5 177.9,327.5 179.2,327.5 180.6,327.5 182.0,327.5 183.4,327.5 184.8,327.5 186.1,327.5 187.5,327.5 188.9,327.5 190.3,327.5 191.6,327.5 193.0,327.5 194.4,327.5 195.8,327.5 197.1,327.5 198.5,327.5 199.9,327.5 201.2,327.5 202.6,327.5 204.0,327.5 205.4,327.5 206.8,327.5 208.1,327.5 209.5,327.5 210.9,327.5 212.2,327.5 213.6,327.5 215.0,327.5 216.4,327.5 217.8,327.5 219.1,327.5 220.5,327.5 221.9,327.5 223.2,327.5 224.6,327.5 226.0,327.5 227.4,327.5 228.7,327.5 230.1,327.5 231.5,327.5 232.9,327.5 234.2,327.5 235.6,327.5 237.0,327.5 238.4,327.5 239.7,327.5 241.1,327.5 242.5,327.5 243.9,327.5 245.2,327.5 246.6,327.5 248.0,327.5 249.4,327.5 250.8,327.5 252.1,327.5 253.5,327.5 254.9,327.5 256.2,327.5 257.6,327.5 259.0,327.5 260.4,327.5 261.8,327.5 263.1,327.5 264.5,327.5 265.9,327.5 267.2,327.5 268.6,327.5 270.0,327.5 271.4,327.5 272.8,327.5 274.1,327.5 275.5,327.5 276.9,327.5 278.2,327.5 279.6,327.5 281.0,327.5 282.4,327.5 283.8,327.5 285.1,327.5 286.5,327.5 287.9,327.5 289.2,327.5 290.6,327.5 292.0,327.5 293.4,327.5 294.8,327.5 296.1,327.5 297.5,327.5 298.9,327.5 300.2,327.5 301.6,327.5 303.0,327.5 304.4,327.5 305.8,327.5 307.1,327.5 308.5,327.5 309.9,327.5 311.2,327.5 312.6,327.5 314.0,327.5 315.4,327.5 316.8,327.5 318.1,327.5 319.5,327.5 320.9,327.5 322.2,327.5 323.6,327.5 325.0,327.5 326.4,327.5 327.8,327.5 329.1,327.5 330.5,327.5 331.9,327.5 333.2,327.5 334.6,326.6 336.0,325.0 337.4,323.6 338.8,322.1 340.1,320.7 341.5,319.4 342.9,317.9 344.2,316.3 345.6,314.8 347.0,313.3 348.4,311.8 349.8,310.3 351.1,308.7 352.5,307.2 353.9,305.7 355.2,304.2 356.6,302.6 358.0,301.1 359.4,299.6 360.8,298.1 362.1,296.6 363.5,295.0 364.9,293.5 366.2,292.0 367.6,290.5 369.0,288.9 370.4,287.4 371.8,285.9 373.1,284.4 374.5,282.8 375.9,281.3 377.2,279.8 378.6,278.3 380.0,276.8 381.4,275.2 382.8,273.7 384.1,272.2 385.5,270.7 386.9,269.1 388.2,267.6 389.6,266.1 391.0,264.6 392.4,263.1 393.7,261.5 395.1,260.0 396.5,258.5 397.9,257.0 399.2,255.4 400.6,253.9 402.0,252.4 403.4,250.9 404.8,249.3 406.1,247.8 407.5,246.3 408.9,244.8 410.3,243.3 411.6,241.7 413.0,240.2 414.4,238.7 415.8,237.2 417.1,235.6 418.5,234.1 419.9,232.6 421.2,231.1 422.6,229.5 424.0,228.0 425.4,226.5 426.8,225.0 428.1,223.5 429.5,221.9 430.9,220.4 432.2,218.9 433.6,217.4 435.0,215.8 436.4,214.3 437.8,212.8 439.1,211.3 440.5,209.7 441.9,208.2 443.2,206.7 444.6,205.2 446.0,203.7 447.4,202.1 448.8,200.6 450.1,199.1 451.5,197.6 452.9,196.0 454.2,194.5 455.6,193.0 457.0,191.5 458.4,189.9 459.8,188.4 461.1,186.9 462.5,185.4 463.9,183.9 465.3,182.3 466.6,180.8 468.0,179.3 469.4,177.8 470.8,176.2 472.1,174.7 473.5,173.2 474.9,171.7 476.2,170.1 477.6,168.6 479.0,167.1 480.4,165.6 481.8,164.1 483.1,162.5 484.5,161.0 485.9,159.5 487.2,158.0 488.6,156.4 490.0,154.9 491.4,153.4 492.8,151.9 494.1,150.3 495.5,148.8 496.9,147.3 498.2,145.8 499.6,144.3 501.0,142.7 502.4,141.2 503.8,139.7 505.1,138.2 506.5,136.6 507.9,135.1 509.2,133.6 510.6,132.1 512.0,130.6 513.4,129.0 514.8,127.5 516.1,126.0 517.5,124.5 518.9,122.9 520.2,121.4 521.6,119.9 523.0,118.4 524.4,116.8 525.8,115.3 527.1,113.8 528.5,112.3 529.9,110.8 531.2,109.2 532.6,107.7 534.0,106.2 535.4,104.7 536.8,103.1 538.1,101.6 539.5,100.1 540.9,98.6 542.2,97.0 543.6,95.5 545.0,94.0 546.4,92.5 547.8,91.0 549.1,89.4 550.5,87.9 551.9,86.4 553.2,84.9 554.6,83.3 556.0,81.8 557.4,80.3 558.8,78.8 560.1,77.2 561.5,75.7 562.9,74.2 564.2,72.7 565.6,71.2 567.0,69.6 568.4,68.1 569.8,66.6 571.1,65.2 572.5,64.4 573.9,64.1 575.2,64.0 576.6,64.0 578.0,64.1 579.4,64.1 580.8,64.2 582.1,64.3 583.5,64.4 584.9,64.5 586.2,64.6 587.6,64.7 589.0,64.8 590.4,64.9 591.8,65.1 593.1,65.2 594.5,65.3 595.9,65.4 597.2,65.5 598.6,65.6 600.0,65.7 601.4,65.8 602.8,65.9 604.1,66.0 605.5,66.1 606.9,66.2 608.2,66.3 609.6,66.4 611.0,66.5 612.4,66.6 613.8,66.7 615.1,66.7 616.5,66.8 617.9,66.9 619.2,66.9 620.6,67.0 622.0,67.0 623.4,67.0 624.8,67.0 626.1,67.0 627.5,67.0 628.9,67.0 630.2,67.0 631.6,67.0 633.0,67.0 634.4,67.0 635.8,67.0 637.1,67.0 638.5,67.0 639.9,67.0 641.2,67.0 642.6,67.0 644.0,67.0 645.4,67.0 646.7,67.0 648.1,67.0 649.5,67.0 650.9,67.0 652.3,67.0 653.6,67.0 655.0,67.0 656.4,67.0 657.8,67.0 659.1,67.0 660.5,67.0 661.9,67.0 663.2,67.0 664.6,67.0 666.0,67.0 667.4,67.0 668.8,67.0 670.1,67.0 671.5,67.0 672.9,67.0 674.2,67.0 675.6,67.0 677.0,67.0 678.4,67.0 679.8,67.0 681.1,67.0 682.5,67.0 683.9,67.0 685.2,67.0 686.6,67.0 688.0,67.0 689.4,67.0 690.8,67.0 692.1,67.0 693.5,67.0 694.9,67.0 696.2,67.0 697.6,67.0 699.0,67.0 700.4,67.0 701.8,67.0 703.1,67.0 704.5,67.0 705.9,66.9 707.2,66.9 708.6,66.8 710.0,66.7 711.4,66.6 712.8,66.5 714.1,66.4 715.5,66.3 716.9,66.1 718.2,66.0 719.6,65.9 721.0,65.8 722.4,65.7 723.8,65.5 725.1,65.4 726.5,65.3 727.9,65.2 729.2,65.0 730.6,64.9 732.0,64.8 733.4,64.7 734.8,64.5 736.1,64.4 737.5,64.3 738.9,64.2 740.2,64.1 741.6,64.0 743.0,64.0 744.4,64.1 745.8,64.8 747.1,327.4 748.5,327.5 749.9,327.4 751.2,327.4 752.6,327.5 754.0,327.4 755.4,327.4 756.8,327.5 758.1,327.4 759.5,327.4 760.9,327.5 762.2,327.4 763.6,327.4 765.0,327.5 766.4,327.4 767.8,327.4 769.1,327.5 770.5,327.4 771.9,327.4 773.2,327.5 774.6,327.4 776.0,327.4 777.4,327.5 778.8,327.4 780.1,327.4 781.5,327.5 782.9,327.4 784.2,327.4 785.6,327.5 787.0,327.4 788.4,327.4 789.8,327.5 791.1,327.4 792.5,327.4 793.9,327.5 795.2,327.4 796.6,327.4 798.0,327.5 799.4,327.4 800.8,327.4 802.1,327.5 803.5,327.4 804.9,327.4 806.2,327.5 807.6,327.4 809.0,327.4 810.4,327.5 811.7,327.4 813.1,327.4 814.5,327.5 815.9,327.4 817.2,327.4 818.6,327.5 820.0,327.4 821.4,327.4 822.8,327.5 824.1,327.4 825.5,327.4 826.9,327.5 828.2,327.4 829.6,327.4 831.0,327.5 832.4,327.4 833.8,327.4 835.1,327.5 836.5,327.4 837.9,327.4 839.2,327.5 840.6,327.4 842.0,327.4" fill="none" stroke="#a8452a" stroke-width="1.6" stroke-linejoin="round"/>
<circle cx="677.0" cy="113.8" r="3.2" fill="#ffffff" stroke="#333333" stroke-width="1.4"/>
<text x="685.0" y="129.8" text-anchor="start" font-size="11" fill="#333333">limite M1 5,65 V RMS</text>
<circle cx="677.0" cy="81.4" r="3.2" fill="#ffffff" stroke="#333333" stroke-width="1.4"/>
<text x="685.0" y="97.4" text-anchor="start" font-size="11" fill="#333333">limite M1 8,02 V RMS</text>
<circle cx="568.4" cy="68.1" r="3.2" fill="#ffffff" stroke="#333333" stroke-width="1.4"/>
<text x="560.4" y="60.1" text-anchor="end" font-size="11" fill="#333333">limite M1 8,99 V RMS</text>
<rect x="72" y="46" width="770" height="290" fill="none" stroke="#333333" stroke-width="1.2"/>
<line x1="72.0" y1="336" x2="72.0" y2="341" stroke="#333333" stroke-width="1.2"/>
<text x="72.0" y="354" text-anchor="middle" font-size="11" fill="#333333">-14</text>
<line x1="168.2" y1="336" x2="168.2" y2="341" stroke="#333333" stroke-width="1.2"/>
<text x="168.2" y="354" text-anchor="middle" font-size="11" fill="#333333">-10.5</text>
<line x1="264.5" y1="336" x2="264.5" y2="341" stroke="#333333" stroke-width="1.2"/>
<text x="264.5" y="354" text-anchor="middle" font-size="11" fill="#333333">-7</text>
<line x1="360.8" y1="336" x2="360.8" y2="341" stroke="#333333" stroke-width="1.2"/>
<text x="360.8" y="354" text-anchor="middle" font-size="11" fill="#333333">-3.5</text>
<line x1="457.0" y1="336" x2="457.0" y2="341" stroke="#333333" stroke-width="1.2"/>
<text x="457.0" y="354" text-anchor="middle" font-size="11" fill="#333333">0</text>
<line x1="553.2" y1="336" x2="553.2" y2="341" stroke="#333333" stroke-width="1.2"/>
<text x="553.2" y="354" text-anchor="middle" font-size="11" fill="#333333">3.5</text>
<line x1="649.5" y1="336" x2="649.5" y2="341" stroke="#333333" stroke-width="1.2"/>
<text x="649.5" y="354" text-anchor="middle" font-size="11" fill="#333333">7</text>
<line x1="745.8" y1="336" x2="745.8" y2="341" stroke="#333333" stroke-width="1.2"/>
<text x="745.8" y="354" text-anchor="middle" font-size="11" fill="#333333">10.5</text>
<line x1="842.0" y1="336" x2="842.0" y2="341" stroke="#333333" stroke-width="1.2"/>
<text x="842.0" y="354" text-anchor="middle" font-size="11" fill="#333333">14</text>
<line x1="67" y1="336.0" x2="72" y2="336.0" stroke="#333333" stroke-width="1.2"/>
<text x="63" y="340.0" text-anchor="end" font-size="11" fill="#333333">-15</text>
<line x1="67" y1="287.7" x2="72" y2="287.7" stroke="#333333" stroke-width="1.2"/>
<text x="63" y="291.7" text-anchor="end" font-size="11" fill="#333333">-10</text>
<line x1="67" y1="239.3" x2="72" y2="239.3" stroke="#333333" stroke-width="1.2"/>
<text x="63" y="243.3" text-anchor="end" font-size="11" fill="#333333">-5</text>
<line x1="67" y1="191.0" x2="72" y2="191.0" stroke="#333333" stroke-width="1.2"/>
<text x="63" y="195.0" text-anchor="end" font-size="11" fill="#333333">0</text>
<line x1="67" y1="142.7" x2="72" y2="142.7" stroke="#333333" stroke-width="1.2"/>
<text x="63" y="146.7" text-anchor="end" font-size="11" fill="#333333">5</text>
<line x1="67" y1="94.3" x2="72" y2="94.3" stroke="#333333" stroke-width="1.2"/>
<text x="63" y="98.3" text-anchor="end" font-size="11" fill="#333333">10</text>
<line x1="67" y1="46.0" x2="72" y2="46.0" stroke="#333333" stroke-width="1.2"/>
<text x="63" y="50.0" text-anchor="end" font-size="11" fill="#333333">15</text>
<text x="24" y="191.0" text-anchor="middle" font-size="12" fill="#333333" transform="rotate(-90 24 191.0)">v(OUT) [V]</text>
<text x="457.0" y="372" text-anchor="middle" font-size="12" fill="#333333">v(IN) [V]</text>
<text x="72" y="36" font-size="13" font-weight="600" fill="#333333">Escursione in continua e saturazione, i tre modi</text>
<line x1="80" y1="390" x2="102" y2="390" stroke="#1f5c99" stroke-width="2.2"/>
<text x="108" y="394" font-size="11" fill="#333333">0 dB</text>
<line x1="255" y1="390" x2="277" y2="390" stroke="#2e7d4f" stroke-width="2.2"/>
<text x="283" y="394" font-size="11" fill="#333333">+3 dB</text>
<line x1="430" y1="390" x2="452" y2="390" stroke="#a8452a" stroke-width="2.2"/>
<text x="458" y="394" font-size="11" fill="#333333">+10 dB</text>
<text x="12" y="420" font-size="11" fill="#666666">Dati: L42 tb_dc_headroom*.csv · spazzata in continua; il punto segna il bordo positivo della finestra all'1 %</text>
</svg>
