<?xml version="1.0" encoding="UTF-8"?>
<svg xmlns="http://www.w3.org/2000/svg" width="900" height="460" viewBox="0 0 900 460" font-family="Helvetica, Arial, sans-serif">
<rect width="900" height="460" fill="#ffffff"/>
<rect x="72" y="46" width="770" height="300" fill="#ffffff" stroke="none"/>
<line x1="72.0" y1="46" x2="72.0" y2="346" stroke="#e0e0e0" stroke-width="1"/>
<line x1="168.2" y1="46" x2="168.2" y2="346" stroke="#e0e0e0" stroke-width="1"/>
<line x1="264.5" y1="46" x2="264.5" y2="346" stroke="#e0e0e0" stroke-width="1"/>
<line x1="360.8" y1="46" x2="360.8" y2="346" stroke="#e0e0e0" stroke-width="1"/>
<line x1="457.0" y1="46" x2="457.0" y2="346" stroke="#e0e0e0" stroke-width="1"/>
<line x1="553.2" y1="46" x2="553.2" y2="346" stroke="#e0e0e0" stroke-width="1"/>
<line x1="649.5" y1="46" x2="649.5" y2="346" stroke="#e0e0e0" stroke-width="1"/>
<line x1="745.8" y1="46" x2="745.8" y2="346" stroke="#e0e0e0" stroke-width="1"/>
<line x1="842.0" y1="46" x2="842.0" y2="346" stroke="#e0e0e0" stroke-width="1"/>
<line x1="72" y1="346.0" x2="842" y2="346.0" stroke="#e0e0e0" stroke-width="1"/>
<line x1="72" y1="296.0" x2="842" y2="296.0" stroke="#e0e0e0" stroke-width="1"/>
<line x1="72" y1="246.0" x2="842" y2="246.0" stroke="#e0e0e0" stroke-width="1"/>
<line x1="72" y1="196.0" x2="842" y2="196.0" stroke="#e0e0e0" stroke-width="1"/>
<line x1="72" y1="146.0" x2="842" y2="146.0" stroke="#e0e0e0" stroke-width="1"/>
<line x1="72" y1="96.0" x2="842" y2="96.0" stroke="#e0e0e0" stroke-width="1"/>
<line x1="72" y1="46.0" x2="842" y2="46.0" stroke="#e0e0e0" stroke-width="1"/>
<line x1="72" y1="212.7" x2="842" y2="212.7" stroke="#888888" stroke-width="1.4" stroke-dasharray="6,4"/>
<text x="76" y="207.7" text-anchor="start" font-size="11" fill="#888888">soglia 60° (ADR-019)</text>
<polyline points="72.0,167.5 79.5,168.2 88.0,169.0 107.3,170.8 147.4,174.5 232.4,181.9 312.6,187.4 424.9,192.4 505.1,194.3 601.4,195.5 826.0,195.4" fill="none" stroke="#1f5c99" stroke-width="1.6" stroke-linejoin="round"/>
<polyline points="72.0,167.5 79.5,168.2 88.0,168.9 107.3,170.8 147.4,174.6 232.4,183.1 312.6,191.5 424.9,203.8 505.1,212.9 601.4,224.0 826.0,249.4" fill="none" stroke="#7fb3e0" stroke-width="1.6" stroke-dasharray="5,3" stroke-linejoin="round"/>
<polyline points="72.0,141.7 79.5,142.5 88.0,143.3 107.3,145.1 147.4,148.8 232.4,156.0 312.6,161.1 424.9,165.4 505.1,166.8 601.4,167.5 826.0,166.5" fill="none" stroke="#2e7d4f" stroke-width="1.6" stroke-linejoin="round"/>
<polyline points="72.0,141.7 79.5,142.5 88.0,143.3 107.3,145.1 147.4,149.0 232.4,157.6 312.6,166.1 424.9,178.5 505.1,187.7 601.4,198.7 826.0,223.8" fill="none" stroke="#86c29c" stroke-width="1.6" stroke-dasharray="5,3" stroke-linejoin="round"/>
<polyline points="72.0,46.0 79.5,46.0 88.0,46.0 107.3,46.0 147.4,46.0 232.4,46.9 312.6,50.2 424.9,54.2 505.1,56.5 601.4,58.8 826.0,62.4" fill="none" stroke="#a8452a" stroke-width="1.6" stroke-linejoin="round"/>
<polyline points="72.0,46.0 79.5,46.0 88.0,46.0 107.3,46.0 147.4,46.0 232.4,47.1 312.6,51.0 424.9,56.5 505.1,60.5 601.4,65.3 826.0,76.6" fill="none" stroke="#e09880" stroke-width="1.6" stroke-dasharray="5,3" stroke-linejoin="round"/>
<circle cx="601.4" cy="195.5" r="3.2" fill="#ffffff" stroke="#333333" stroke-width="1.4"/>
<text x="609.4" y="187.5" text-anchor="start" font-size="11" fill="#333333">min 65,16°</text>
<circle cx="601.4" cy="167.5" r="3.2" fill="#ffffff" stroke="#333333" stroke-width="1.4"/>
<text x="609.4" y="159.5" text-anchor="start" font-size="11" fill="#333333">min 73,56°</text>
<circle cx="826.0" cy="62.4" r="3.2" fill="#ffffff" stroke="#333333" stroke-width="1.4"/>
<text x="834.0" y="54.4" text-anchor="start" font-size="11" fill="#333333">min 105,08°</text>
<rect x="72" y="46" width="770" height="300" fill="none" stroke="#333333" stroke-width="1.2"/>
<line x1="72.0" y1="346" x2="72.0" y2="351" stroke="#333333" stroke-width="1.2"/>
<text x="72.0" y="364" text-anchor="middle" font-size="11" fill="#333333">0</text>
<line x1="168.2" y1="346" x2="168.2" y2="351" stroke="#333333" stroke-width="1.2"/>
<text x="168.2" y="364" text-anchor="middle" font-size="11" fill="#333333">0.6</text>
<line x1="264.5" y1="346" x2="264.5" y2="351" stroke="#333333" stroke-width="1.2"/>
<text x="264.5" y="364" text-anchor="middle" font-size="11" fill="#333333">1.2</text>
<line x1="360.8" y1="346" x2="360.8" y2="351" stroke="#333333" stroke-width="1.2"/>
<text x="360.8" y="364" text-anchor="middle" font-size="11" fill="#333333">1.8</text>
<line x1="457.0" y1="346" x2="457.0" y2="351" stroke="#333333" stroke-width="1.2"/>
<text x="457.0" y="364" text-anchor="middle" font-size="11" fill="#333333">2.4</text>
<line x1="553.2" y1="346" x2="553.2" y2="351" stroke="#333333" stroke-width="1.2"/>
<text x="553.2" y="364" text-anchor="middle" font-size="11" fill="#333333">3</text>
<line x1="649.5" y1="346" x2="649.5" y2="351" stroke="#333333" stroke-width="1.2"/>
<text x="649.5" y="364" text-anchor="middle" font-size="11" fill="#333333">3.6</text>
<line x1="745.8" y1="346" x2="745.8" y2="351" stroke="#333333" stroke-width="1.2"/>
<text x="745.8" y="364" text-anchor="middle" font-size="11" fill="#333333">4.2</text>
<line x1="842.0" y1="346" x2="842.0" y2="351" stroke="#333333" stroke-width="1.2"/>
<text x="842.0" y="364" text-anchor="middle" font-size="11" fill="#333333">4.8</text>
<line x1="67" y1="346.0" x2="72" y2="346.0" stroke="#333333" stroke-width="1.2"/>
<text x="63" y="350.0" text-anchor="end" font-size="11" fill="#333333">20</text>
<line x1="67" y1="296.0" x2="72" y2="296.0" stroke="#333333" stroke-width="1.2"/>
<text x="63" y="300.0" text-anchor="end" font-size="11" fill="#333333">35</text>
<line x1="67" y1="246.0" x2="72" y2="246.0" stroke="#333333" stroke-width="1.2"/>
<text x="63" y="250.0" text-anchor="end" font-size="11" fill="#333333">50</text>
<line x1="67" y1="196.0" x2="72" y2="196.0" stroke="#333333" stroke-width="1.2"/>
<text x="63" y="200.0" text-anchor="end" font-size="11" fill="#333333">65</text>
<line x1="67" y1="146.0" x2="72" y2="146.0" stroke="#333333" stroke-width="1.2"/>
<text x="63" y="150.0" text-anchor="end" font-size="11" fill="#333333">80</text>
<line x1="67" y1="96.0" x2="72" y2="96.0" stroke="#333333" stroke-width="1.2"/>
<text x="63" y="100.0" text-anchor="end" font-size="11" fill="#333333">95</text>
<line x1="67" y1="46.0" x2="72" y2="46.0" stroke="#333333" stroke-width="1.2"/>
<text x="63" y="50.0" text-anchor="end" font-size="11" fill="#333333">110</text>
<text x="24" y="196.0" text-anchor="middle" font-size="12" fill="#333333" transform="rotate(-90 24 196.0)">margine di fase [gradi]</text>
<text x="457.0" y="382" text-anchor="middle" font-size="12" fill="#333333">capacità del cavo [nF]</text>
<text x="72" y="36" font-size="13" font-weight="600" fill="#333333">V1, blocco B: il margine contro la capacità del cavo (ADR-024)</text>
<line x1="80" y1="400" x2="102" y2="400" stroke="#1f5c99" stroke-width="2.2"/>
<text x="108" y="404" font-size="11" fill="#333333">0 dB · al jack · 2,611 kΩ, 100 kΩ</text>
<line x1="80" y1="417" x2="102" y2="417" stroke="#7fb3e0" stroke-width="2.2" stroke-dasharray="5,3"/>
<text x="108" y="421" font-size="11" fill="#333333">0 dB · sul nodo (informazione)</text>
<line x1="350" y1="400" x2="372" y2="400" stroke="#2e7d4f" stroke-width="2.2"/>
<text x="378" y="404" font-size="11" fill="#333333">+3 dB · al jack · 2,611 kΩ, 100 kΩ</text>
<line x1="350" y1="417" x2="372" y2="417" stroke="#86c29c" stroke-width="2.2" stroke-dasharray="5,3"/>
<text x="378" y="421" font-size="11" fill="#333333">+3 dB · sul nodo (informazione)</text>
<line x1="620" y1="400" x2="642" y2="400" stroke="#a8452a" stroke-width="2.2"/>
<text x="648" y="404" font-size="11" fill="#333333">+10 dB · al jack · 2,611 kΩ, 100 kΩ</text>
<line x1="620" y1="417" x2="642" y2="417" stroke="#e09880" stroke-width="2.2" stroke-dasharray="5,3"/>
<text x="648" y="421" font-size="11" fill="#333333">+10 dB · sul nodo (informazione)</text>
<text x="12" y="450" font-size="11" fill="#666666">Dati: L51a tb_loop_margini.csv · il verdetto è il minimo della curva al jack, non il valore a 4,7 nF</text>
</svg>
