<?xml version="1.0" encoding="UTF-8"?>
<svg xmlns="http://www.w3.org/2000/svg" width="900" height="620" viewBox="0 0 900 620" font-family="Helvetica, Arial, sans-serif">
<rect width="900" height="620" fill="#ffffff"/>
<rect x="72" y="46" width="770" height="230" fill="#ffffff" stroke="none"/>
<line x1="101.0" y1="46" x2="101.0" y2="276" stroke="#f2f2f2" stroke-width="1"/>
<line x1="117.9" y1="46" x2="117.9" y2="276" stroke="#f2f2f2" stroke-width="1"/>
<line x1="129.9" y1="46" x2="129.9" y2="276" stroke="#f2f2f2" stroke-width="1"/>
<line x1="139.3" y1="46" x2="139.3" y2="276" stroke="#f2f2f2" stroke-width="1"/>
<line x1="146.9" y1="46" x2="146.9" y2="276" stroke="#f2f2f2" stroke-width="1"/>
<line x1="153.3" y1="46" x2="153.3" y2="276" stroke="#f2f2f2" stroke-width="1"/>
<line x1="158.9" y1="46" x2="158.9" y2="276" stroke="#f2f2f2" stroke-width="1"/>
<line x1="163.8" y1="46" x2="163.8" y2="276" stroke="#f2f2f2" stroke-width="1"/>
<line x1="197.2" y1="46" x2="197.2" y2="276" stroke="#f2f2f2" stroke-width="1"/>
<line x1="214.2" y1="46" x2="214.2" y2="276" stroke="#f2f2f2" stroke-width="1"/>
<line x1="226.2" y1="46" x2="226.2" y2="276" stroke="#f2f2f2" stroke-width="1"/>
<line x1="235.5" y1="46" x2="235.5" y2="276" stroke="#f2f2f2" stroke-width="1"/>
<line x1="243.1" y1="46" x2="243.1" y2="276" stroke="#f2f2f2" stroke-width="1"/>
<line x1="249.6" y1="46" x2="249.6" y2="276" stroke="#f2f2f2" stroke-width="1"/>
<line x1="255.2" y1="46" x2="255.2" y2="276" stroke="#f2f2f2" stroke-width="1"/>
<line x1="260.1" y1="46" x2="260.1" y2="276" stroke="#f2f2f2" stroke-width="1"/>
<line x1="293.5" y1="46" x2="293.5" y2="276" stroke="#f2f2f2" stroke-width="1"/>
<line x1="310.4" y1="46" x2="310.4" y2="276" stroke="#f2f2f2" stroke-width="1"/>
<line x1="322.4" y1="46" x2="322.4" y2="276" stroke="#f2f2f2" stroke-width="1"/>
<line x1="331.8" y1="46" x2="331.8" y2="276" stroke="#f2f2f2" stroke-width="1"/>
<line x1="339.4" y1="46" x2="339.4" y2="276" stroke="#f2f2f2" stroke-width="1"/>
<line x1="345.8" y1="46" x2="345.8" y2="276" stroke="#f2f2f2" stroke-width="1"/>
<line x1="351.4" y1="46" x2="351.4" y2="276" stroke="#f2f2f2" stroke-width="1"/>
<line x1="356.3" y1="46" x2="356.3" y2="276" stroke="#f2f2f2" stroke-width="1"/>
<line x1="389.7" y1="46" x2="389.7" y2="276" stroke="#f2f2f2" stroke-width="1"/>
<line x1="406.7" y1="46" x2="406.7" y2="276" stroke="#f2f2f2" stroke-width="1"/>
<line x1="418.7" y1="46" x2="418.7" y2="276" stroke="#f2f2f2" stroke-width="1"/>
<line x1="428.0" y1="46" x2="428.0" y2="276" stroke="#f2f2f2" stroke-width="1"/>
<line x1="435.6" y1="46" x2="435.6" y2="276" stroke="#f2f2f2" stroke-width="1"/>
<line x1="442.1" y1="46" x2="442.1" y2="276" stroke="#f2f2f2" stroke-width="1"/>
<line x1="447.7" y1="46" x2="447.7" y2="276" stroke="#f2f2f2" stroke-width="1"/>
<line x1="452.6" y1="46" x2="452.6" y2="276" stroke="#f2f2f2" stroke-width="1"/>
<line x1="486.0" y1="46" x2="486.0" y2="276" stroke="#f2f2f2" stroke-width="1"/>
<line x1="502.9" y1="46" x2="502.9" y2="276" stroke="#f2f2f2" stroke-width="1"/>
<line x1="514.9" y1="46" x2="514.9" y2="276" stroke="#f2f2f2" stroke-width="1"/>
<line x1="524.3" y1="46" x2="524.3" y2="276" stroke="#f2f2f2" stroke-width="1"/>
<line x1="531.9" y1="46" x2="531.9" y2="276" stroke="#f2f2f2" stroke-width="1"/>
<line x1="538.3" y1="46" x2="538.3" y2="276" stroke="#f2f2f2" stroke-width="1"/>
<line x1="543.9" y1="46" x2="543.9" y2="276" stroke="#f2f2f2" stroke-width="1"/>
<line x1="548.8" y1="46" x2="548.8" y2="276" stroke="#f2f2f2" stroke-width="1"/>
<line x1="582.2" y1="46" x2="582.2" y2="276" stroke="#f2f2f2" stroke-width="1"/>
<line x1="599.2" y1="46" x2="599.2" y2="276" stroke="#f2f2f2" stroke-width="1"/>
<line x1="611.2" y1="46" x2="611.2" y2="276" stroke="#f2f2f2" stroke-width="1"/>
<line x1="620.5" y1="46" x2="620.5" y2="276" stroke="#f2f2f2" stroke-width="1"/>
<line x1="628.1" y1="46" x2="628.1" y2="276" stroke="#f2f2f2" stroke-width="1"/>
<line x1="634.6" y1="46" x2="634.6" y2="276" stroke="#f2f2f2" stroke-width="1"/>
<line x1="640.2" y1="46" x2="640.2" y2="276" stroke="#f2f2f2" stroke-width="1"/>
<line x1="645.1" y1="46" x2="645.1" y2="276" stroke="#f2f2f2" stroke-width="1"/>
<line x1="678.5" y1="46" x2="678.5" y2="276" stroke="#f2f2f2" stroke-width="1"/>
<line x1="695.4" y1="46" x2="695.4" y2="276" stroke="#f2f2f2" stroke-width="1"/>
<line x1="707.4" y1="46" x2="707.4" y2="276" stroke="#f2f2f2" stroke-width="1"/>
<line x1="716.8" y1="46" x2="716.8" y2="276" stroke="#f2f2f2" stroke-width="1"/>
<line x1="724.4" y1="46" x2="724.4" y2="276" stroke="#f2f2f2" stroke-width="1"/>
<line x1="730.8" y1="46" x2="730.8" y2="276" stroke="#f2f2f2" stroke-width="1"/>
<line x1="736.4" y1="46" x2="736.4" y2="276" stroke="#f2f2f2" stroke-width="1"/>
<line x1="741.3" y1="46" x2="741.3" y2="276" stroke="#f2f2f2" stroke-width="1"/>
<line x1="774.7" y1="46" x2="774.7" y2="276" stroke="#f2f2f2" stroke-width="1"/>
<line x1="791.7" y1="46" x2="791.7" y2="276" stroke="#f2f2f2" stroke-width="1"/>
<line x1="803.7" y1="46" x2="803.7" y2="276" stroke="#f2f2f2" stroke-width="1"/>
<line x1="813.0" y1="46" x2="813.0" y2="276" stroke="#f2f2f2" stroke-width="1"/>
<line x1="820.6" y1="46" x2="820.6" y2="276" stroke="#f2f2f2" stroke-width="1"/>
<line x1="827.1" y1="46" x2="827.1" y2="276" stroke="#f2f2f2" stroke-width="1"/>
<line x1="832.7" y1="46" x2="832.7" y2="276" stroke="#f2f2f2" stroke-width="1"/>
<line x1="837.6" y1="46" x2="837.6" y2="276" stroke="#f2f2f2" stroke-width="1"/>
<line x1="72.0" y1="46" x2="72.0" y2="276" stroke="#e0e0e0" stroke-width="1"/>
<line x1="168.2" y1="46" x2="168.2" y2="276" stroke="#e0e0e0" stroke-width="1"/>
<line x1="264.5" y1="46" x2="264.5" y2="276" stroke="#e0e0e0" stroke-width="1"/>
<line x1="360.8" y1="46" x2="360.8" y2="276" stroke="#e0e0e0" stroke-width="1"/>
<line x1="457.0" y1="46" x2="457.0" y2="276" stroke="#e0e0e0" stroke-width="1"/>
<line x1="553.2" y1="46" x2="553.2" y2="276" stroke="#e0e0e0" stroke-width="1"/>
<line x1="649.5" y1="46" x2="649.5" y2="276" stroke="#e0e0e0" stroke-width="1"/>
<line x1="745.8" y1="46" x2="745.8" y2="276" stroke="#e0e0e0" stroke-width="1"/>
<line x1="842.0" y1="46" x2="842.0" y2="276" stroke="#e0e0e0" stroke-width="1"/>
<line x1="72" y1="276.0" x2="842" y2="276.0" stroke="#e0e0e0" stroke-width="1"/>
<line x1="72" y1="237.7" x2="842" y2="237.7" stroke="#e0e0e0" stroke-width="1"/>
<line x1="72" y1="199.3" x2="842" y2="199.3" stroke="#e0e0e0" stroke-width="1"/>
<line x1="72" y1="161.0" x2="842" y2="161.0" stroke="#e0e0e0" stroke-width="1"/>
<line x1="72" y1="122.7" x2="842" y2="122.7" stroke="#e0e0e0" stroke-width="1"/>
<line x1="72" y1="84.3" x2="842" y2="84.3" stroke="#e0e0e0" stroke-width="1"/>
<line x1="72" y1="46.0" x2="842" y2="46.0" stroke="#e0e0e0" stroke-width="1"/>
<line x1="72" y1="199.3" x2="842" y2="199.3" stroke="#888888" stroke-width="1.4" stroke-dasharray="6,4"/>
<text x="838" y="194.3" text-anchor="end" font-size="11" fill="#888888">0 dB</text>
<polyline points="72.0,46.0 73.0,46.0 73.9,46.0 74.9,46.0 75.9,46.0 76.8,46.0 77.8,46.0 78.7,46.0 79.7,46.0 80.7,46.0 81.6,46.0 82.6,46.0 83.6,46.0 84.5,46.0 85.5,46.0 86.4,46.0 87.4,46.0 88.4,46.0 89.3,46.0 90.3,46.0 91.2,46.0 92.2,46.0 93.2,46.0 94.1,46.0 95.1,46.0 96.1,46.0 97.0,46.0 98.0,46.0 99.0,46.0 99.9,46.0 100.9,46.0 101.8,46.0 102.8,46.0 103.8,46.0 104.7,46.0 105.7,46.0 106.6,46.0 107.6,46.0 108.6,46.0 109.5,46.0 110.5,46.0 111.5,46.0 112.4,46.0 113.4,46.0 114.3,46.0 115.3,46.0 116.3,46.0 117.2,46.0 118.2,46.0 119.2,46.0 120.1,46.0 121.1,46.0 122.0,46.0 123.0,46.0 124.0,46.0 124.9,46.0 125.9,46.0 126.9,46.0 127.8,46.0 128.8,46.0 129.8,46.0 130.7,46.0 131.7,46.0 132.6,46.0 133.6,46.0 134.6,46.0 135.5,46.0 136.5,46.0 137.4,46.0 138.4,46.0 139.4,46.0 140.3,46.0 141.3,46.0 142.3,46.0 143.2,46.0 144.2,46.0 145.1,46.0 146.1,46.0 147.1,46.0 148.0,46.0 149.0,46.0 150.0,46.0 150.9,46.0 151.9,46.0 152.9,46.0 153.8,46.0 154.8,46.0 155.7,46.0 156.7,46.0 157.7,46.0 158.6,46.0 159.6,46.0 160.5,46.0 161.5,46.0 162.5,46.0 163.4,46.0 164.4,46.0 165.4,46.0 166.3,46.0 167.3,46.0 168.2,46.0 169.2,46.0 170.2,46.0 171.1,46.0 172.1,46.0 173.1,46.0 174.0,46.0 175.0,46.0 175.9,46.0 176.9,46.0 177.9,46.0 178.8,46.0 179.8,46.0 180.8,46.0 181.7,46.0 182.7,46.0 183.6,46.0 184.6,46.0 185.6,46.0 186.5,46.0 187.5,46.0 188.5,46.0 189.4,46.0 190.4,46.0 191.4,46.0 192.3,46.0 193.3,46.0 194.2,46.0 195.2,46.0 196.2,46.0 197.1,46.0 198.1,46.0 199.0,46.0 200.0,46.0 201.0,46.0 201.9,46.0 202.9,46.0 203.9,46.0 204.8,46.0 205.8,46.1 206.7,46.2 207.7,46.4 208.7,46.5 209.6,46.6 210.6,46.7 211.6,46.9 212.5,47.0 213.5,47.2 214.4,47.3 215.4,47.5 216.4,47.6 217.3,47.8 218.3,47.9 219.3,48.1 220.2,48.3 221.2,48.5 222.2,48.7 223.1,48.8 224.1,49.0 225.0,49.2 226.0,49.4 227.0,49.6 227.9,49.9 228.9,50.1 229.8,50.3 230.8,50.5 231.8,50.7 232.7,51.0 233.7,51.2 234.7,51.5 235.6,51.7 236.6,51.9 237.5,52.2 238.5,52.5 239.5,52.7 240.4,53.0 241.4,53.2 242.4,53.5 243.3,53.8 244.3,54.1 245.2,54.4 246.2,54.6 247.2,54.9 248.1,55.2 249.1,55.5 250.1,55.8 251.0,56.1 252.0,56.4 252.9,56.7 253.9,57.0 254.9,57.4 255.8,57.7 256.8,58.0 257.8,58.3 258.7,58.6 259.7,59.0 260.6,59.3 261.6,59.6 262.6,59.9 263.5,60.3 264.5,60.6 265.5,61.0 266.4,61.3 267.4,61.6 268.4,62.0 269.3,62.3 270.3,62.7 271.2,63.0 272.2,63.4 273.2,63.7 274.1,64.1 275.1,64.4 276.1,64.8 277.0,65.1 278.0,65.5 278.9,65.8 279.9,66.2 280.9,66.6 281.8,66.9 282.8,67.3 283.7,67.7 284.7,68.0 285.7,68.4 286.6,68.7 287.6,69.1 288.6,69.5 289.5,69.8 290.5,70.2 291.5,70.6 292.4,71.0 293.4,71.3 294.3,71.7 295.3,72.1 296.3,72.4 297.2,72.8 298.2,73.2 299.1,73.6 300.1,73.9 301.1,74.3 302.0,74.7 303.0,75.1 304.0,75.4 304.9,75.8 305.9,76.2 306.8,76.6 307.8,76.9 308.8,77.3 309.7,77.7 310.7,78.1 311.7,78.4 312.6,78.8 313.6,79.2 314.5,79.6 315.5,80.0 316.5,80.3 317.4,80.7 318.4,81.1 319.4,81.5 320.3,81.9 321.3,82.2 322.3,82.6 323.2,83.0 324.2,83.4 325.1,83.8 326.1,84.1 327.1,84.5 328.0,84.9 329.0,85.3 329.9,85.7 330.9,86.0 331.9,86.4 332.8,86.8 333.8,87.2 334.8,87.6 335.7,87.9 336.7,88.3 337.6,88.7 338.6,89.1 339.6,89.5 340.5,89.9 341.5,90.2 342.5,90.6 343.4,91.0 344.4,91.4 345.4,91.8 346.3,92.1 347.3,92.5 348.2,92.9 349.2,93.3 350.2,93.7 351.1,94.1 352.1,94.4 353.0,94.8 354.0,95.2 355.0,95.6 355.9,96.0 356.9,96.4 357.9,96.7 358.8,97.1 359.8,97.5 360.8,97.9 361.7,98.3 362.7,98.7 363.6,99.0 364.6,99.4 365.6,99.8 366.5,100.2 367.5,100.6 368.4,101.0 369.4,101.3 370.4,101.7 371.3,102.1 372.3,102.5 373.3,102.9 374.2,103.2 375.2,103.6 376.1,104.0 377.1,104.4 378.1,104.8 379.0,105.2 380.0,105.5 381.0,105.9 381.9,106.3 382.9,106.7 383.9,107.1 384.8,107.5 385.8,107.8 386.7,108.2 387.7,108.6 388.7,109.0 389.6,109.4 390.6,109.8 391.5,110.1 392.5,110.5 393.5,110.9 394.4,111.3 395.4,111.7 396.4,112.1 397.3,112.4 398.3,112.8 399.2,113.2 400.2,113.6 401.2,114.0 402.1,114.4 403.1,114.7 404.1,115.1 405.0,115.5 406.0,115.9 406.9,116.3 407.9,116.7 408.9,117.0 409.8,117.4 410.8,117.8 411.8,118.2 412.7,118.6 413.7,119.0 414.7,119.3 415.6,119.7 416.6,120.1 417.5,120.5 418.5,120.9 419.5,121.3 420.4,121.6 421.4,122.0 422.3,122.4 423.3,122.8 424.3,123.2 425.2,123.6 426.2,123.9 427.2,124.3 428.1,124.7 429.1,125.1 430.0,125.5 431.0,125.9 432.0,126.2 432.9,126.6 433.9,127.0 434.9,127.4 435.8,127.8 436.8,128.2 437.7,128.5 438.7,128.9 439.7,129.3 440.6,129.7 441.6,130.1 442.6,130.5 443.5,130.8 444.5,131.2 445.4,131.6 446.4,132.0 447.4,132.4 448.3,132.8 449.3,133.1 450.3,133.5 451.2,133.9 452.2,134.3 453.1,134.7 454.1,135.1 455.1,135.4 456.0,135.8 457.0,136.2 458.0,136.6 458.9,137.0 459.9,137.4 460.9,137.7 461.8,138.1 462.8,138.5 463.7,138.9 464.7,139.3 465.7,139.7 466.6,140.0 467.6,140.4 468.6,140.8 469.5,141.2 470.5,141.6 471.4,142.0 472.4,142.3 473.4,142.7 474.3,143.1 475.3,143.5 476.2,143.9 477.2,144.3 478.2,144.6 479.1,145.0 480.1,145.4 481.1,145.8 482.0,146.2 483.0,146.6 484.0,146.9 484.9,147.3 485.9,147.7 486.8,148.1 487.8,148.5 488.8,148.9 489.7,149.3 490.7,149.6 491.6,150.0 492.6,150.4 493.6,150.8 494.5,151.2 495.5,151.6 496.5,151.9 497.4,152.3 498.4,152.7 499.3,153.1 500.3,153.5 501.3,153.9 502.2,154.2 503.2,154.6 504.2,155.0 505.1,155.4 506.1,155.8 507.0,156.2 508.0,156.5 509.0,156.9 509.9,157.3 510.9,157.7 511.9,158.1 512.8,158.5 513.8,158.9 514.8,159.2 515.7,159.6 516.7,160.0 517.6,160.4 518.6,160.8 519.6,161.2 520.5,161.5 521.5,161.9 522.4,162.3 523.4,162.7 524.4,163.1 525.3,163.5 526.3,163.9 527.3,164.2 528.2,164.6 529.2,165.0 530.1,165.4 531.1,165.8 532.1,166.2 533.0,166.6 534.0,166.9 535.0,167.3 535.9,167.7 536.9,168.1 537.9,168.5 538.8,168.9 539.8,169.3 540.7,169.7 541.7,170.0 542.7,170.4 543.6,170.8 544.6,171.2 545.5,171.6 546.5,172.0 547.5,172.4 548.4,172.8 549.4,173.2 550.4,173.5 551.3,173.9 552.3,174.3 553.2,174.7 554.2,175.1 555.2,175.5 556.1,175.9 557.1,176.3 558.1,176.7 559.0,177.1 560.0,177.5 560.9,177.9 561.9,178.2 562.9,178.6 563.8,179.0 564.8,179.4 565.8,179.8 566.7,180.2 567.7,180.6 568.6,181.0 569.6,181.4 570.6,181.8 571.5,182.2 572.5,182.6 573.5,183.0 574.4,183.4 575.4,183.8 576.4,184.2 577.3,184.6 578.3,185.0 579.2,185.4 580.2,185.8 581.2,186.2 582.1,186.6 583.1,187.0 584.0,187.4 585.0,187.8 586.0,188.2 586.9,188.6 587.9,189.0 588.9,189.4 589.8,189.8 590.8,190.2 591.7,190.6 592.7,191.0 593.7,191.5 594.6,191.9 595.6,192.3 596.6,192.7 597.5,193.1 598.5,193.5 599.4,193.9 600.4,194.3 601.4,194.7 602.3,195.1 603.3,195.5 604.3,195.9 605.2,196.3 606.2,196.7 607.2,197.1 608.1,197.5 609.1,198.0 610.0,198.4 611.0,198.8 612.0,199.2 612.9,199.6 613.9,200.0 614.8,200.4 615.8,200.8 616.8,201.2 617.7,201.6 618.7,202.0 619.7,202.4 620.6,202.8 621.6,203.2 622.5,203.6 623.5,204.0 624.5,204.4 625.4,204.8 626.4,205.2 627.4,205.6 628.3,205.9 629.3,206.3 630.2,206.7 631.2,207.1 632.2,207.5 633.1,207.9 634.1,208.3 635.1,208.6 636.0,209.0 637.0,209.4 637.9,209.8 638.9,210.1 639.9,210.5 640.8,210.9 641.8,211.2 642.8,211.6 643.7,212.0 644.7,212.3 645.6,212.7 646.6,213.0 647.6,213.4 648.5,213.7 649.5,214.1 650.5,214.4 651.4,214.8 652.4,215.1 653.4,215.4 654.3,215.8 655.3,216.1 656.2,216.4 657.2,216.8 658.2,217.1 659.1,217.4 660.1,217.7 661.1,218.0 662.0,218.4 663.0,218.7 663.9,219.0 664.9,219.3 665.9,219.6 666.8,219.9 667.8,220.2 668.7,220.5 669.7,220.8 670.7,221.1 671.6,221.4 672.6,221.7 673.6,222.0 674.5,222.2 675.5,222.5 676.5,222.8 677.4,223.1 678.4,223.4 679.3,223.7 680.3,224.0 681.3,224.3 682.2,224.5 683.2,224.8 684.1,225.1 685.1,225.4 686.1,225.7 687.0,226.0 688.0,226.3 689.0,226.5 689.9,226.8 690.9,227.1 691.8,227.4 692.8,227.7 693.8,228.0 694.7,228.3 695.7,228.6 696.7,229.0 697.6,229.3 698.6,229.6 699.5,229.9 700.5,230.2 701.5,230.6 702.4,230.9 703.4,231.2 704.4,231.6 705.3,231.9 706.3,232.3 707.3,232.6 708.2,233.0 709.2,233.3 710.1,233.7 711.1,234.0 712.1,234.4 713.0,234.7 714.0,235.1 714.9,235.5 715.9,235.8 716.9,236.2 717.8,236.5 718.8,236.9 719.8,237.2 720.7,237.6 721.7,237.9 722.6,238.2 723.6,238.6 724.6,238.9 725.5,239.2 726.5,239.5 727.5,239.9 728.4,240.2 729.4,240.5 730.4,240.8 731.3,241.1 732.3,241.4 733.2,241.7 734.2,241.9 735.2,242.2 736.1,242.5 737.1,242.8 738.0,243.1 739.0,243.3 740.0,243.6 740.9,243.9 741.9,244.1 742.9,244.4 743.8,244.6 744.8,244.9 745.8,245.2 746.7,245.4 747.7,245.7 748.6,245.9 749.6,246.1 750.6,246.4 751.5,246.6 752.5,246.9 753.4,247.1 754.4,247.3 755.4,247.6 756.3,247.8 757.3,248.1 758.3,248.3 759.2,248.5 760.2,248.8 761.1,249.0 762.1,249.2 763.1,249.5 764.0,249.7 765.0,249.9 766.0,250.1 766.9,250.4 767.9,250.6 768.9,250.8 769.8,251.1 770.8,251.3 771.7,251.5 772.7,251.8 773.7,252.0 774.6,252.3 775.6,252.5 776.5,252.7 777.5,253.0 778.5,253.2 779.4,253.5 780.4,253.7 781.4,254.0 782.3,254.2 783.3,254.5 784.2,254.7 785.2,255.0 786.2,255.3 787.1,255.5 788.1,255.8 789.1,256.1 790.0,256.4 791.0,256.6 791.9,256.9 792.9,257.2 793.9,257.5 794.8,257.8 795.8,258.1 796.8,258.4 797.7,258.7 798.7,259.0 799.7,259.3 800.6,259.6 801.6,259.9 802.5,260.2 803.5,260.5 804.5,260.8 805.4,261.1 806.4,261.4 807.3,261.7 808.3,262.0 809.3,262.3 810.2,262.6 811.2,262.9 812.2,263.2 813.1,263.5 814.1,263.8 815.0,264.1 816.0,264.4 817.0,264.7 817.9,265.0 818.9,265.3 819.9,265.5 820.8,265.8 821.8,266.1 822.7,266.3 823.7,266.5 824.7,266.8 825.6,267.0 826.6,267.2 827.6,267.4 828.5,267.6 829.5,267.8 830.4,267.9 831.4,268.1 832.4,268.2 833.3,268.3 834.3,268.4 835.3,268.5 836.2,268.6 837.2,268.6 838.1,268.6 839.1,268.6 840.1,268.6 841.0,268.6 842.0,268.5" fill="none" stroke="#1f5c99" stroke-width="1.6" stroke-linejoin="round"/>
<polyline points="72.0,49.9 73.0,49.9 73.9,49.9 74.9,49.9 75.9,49.9 76.8,49.9 77.8,49.9 78.7,49.9 79.7,49.9 80.7,49.9 81.6,49.9 82.6,49.9 83.6,49.9 84.5,49.9 85.5,49.9 86.4,49.9 87.4,49.9 88.4,49.9 89.3,49.9 90.3,49.9 91.2,49.9 92.2,49.9 93.2,49.9 94.1,49.9 95.1,49.9 96.1,49.9 97.0,49.9 98.0,49.9 99.0,49.9 99.9,49.9 100.9,49.9 101.8,49.9 102.8,49.9 103.8,49.9 104.7,49.9 105.7,49.9 106.6,49.9 107.6,49.9 108.6,49.9 109.5,49.9 110.5,49.9 111.5,49.9 112.4,49.9 113.4,49.9 114.3,49.9 115.3,49.9 116.3,49.9 117.2,49.9 118.2,49.9 119.2,49.9 120.1,49.9 121.1,49.9 122.0,49.9 123.0,49.9 124.0,49.9 124.9,49.9 125.9,49.9 126.9,49.9 127.8,49.9 128.8,49.9 129.8,50.0 130.7,50.0 131.7,50.0 132.6,50.0 133.6,50.0 134.6,50.0 135.5,50.0 136.5,50.0 137.4,50.0 138.4,50.0 139.4,50.0 140.3,50.0 141.3,50.0 142.3,50.0 143.2,50.0 144.2,50.0 145.1,50.0 146.1,50.1 147.1,50.1 148.0,50.1 149.0,50.1 150.0,50.1 150.9,50.1 151.9,50.1 152.9,50.1 153.8,50.1 154.8,50.1 155.7,50.2 156.7,50.2 157.7,50.2 158.6,50.2 159.6,50.2 160.5,50.2 161.5,50.2 162.5,50.3 163.4,50.3 164.4,50.3 165.4,50.3 166.3,50.3 167.3,50.4 168.2,50.4 169.2,50.4 170.2,50.4 171.1,50.5 172.1,50.5 173.1,50.5 174.0,50.5 175.0,50.6 175.9,50.6 176.9,50.6 177.9,50.7 178.8,50.7 179.8,50.7 180.8,50.8 181.7,50.8 182.7,50.9 183.6,50.9 184.6,51.0 185.6,51.0 186.5,51.1 187.5,51.1 188.5,51.2 189.4,51.2 190.4,51.3 191.4,51.3 192.3,51.4 193.3,51.5 194.2,51.5 195.2,51.6 196.2,51.7 197.1,51.8 198.1,51.8 199.0,51.9 200.0,52.0 201.0,52.1 201.9,52.2 202.9,52.3 203.9,52.4 204.8,52.5 205.8,52.6 206.7,52.7 207.7,52.8 208.7,52.9 209.6,53.0 210.6,53.2 211.6,53.3 212.5,53.4 213.5,53.6 214.4,53.7 215.4,53.8 216.4,54.0 217.3,54.1 218.3,54.3 219.3,54.5 220.2,54.6 221.2,54.8 222.2,55.0 223.1,55.2 224.1,55.3 225.0,55.5 226.0,55.7 227.0,55.9 227.9,56.1 228.9,56.3 229.8,56.5 230.8,56.7 231.8,57.0 232.7,57.2 233.7,57.4 234.7,57.6 235.6,57.9 236.6,58.1 237.5,58.4 238.5,58.6 239.5,58.9 240.4,59.1 241.4,59.4 242.4,59.6 243.3,59.9 244.3,60.2 245.2,60.5 246.2,60.7 247.2,61.0 248.1,61.3 249.1,61.6 250.1,61.9 251.0,62.2 252.0,62.5 252.9,62.8 253.9,63.1 254.9,63.4 255.8,63.7 256.8,64.0 257.8,64.3 258.7,64.7 259.7,65.0 260.6,65.3 261.6,65.6 262.6,65.9 263.5,66.3 264.5,66.6 265.5,66.9 266.4,67.3 267.4,67.6 268.4,68.0 269.3,68.3 270.3,68.6 271.2,69.0 272.2,69.3 273.2,69.7 274.1,70.0 275.1,70.4 276.1,70.7 277.0,71.1 278.0,71.4 278.9,71.8 279.9,72.1 280.9,72.5 281.8,72.9 282.8,73.2 283.7,73.6 284.7,73.9 285.7,74.3 286.6,74.7 287.6,75.0 288.6,75.4 289.5,75.8 290.5,76.1 291.5,76.5 292.4,76.9 293.4,77.2 294.3,77.6 295.3,78.0 296.3,78.3 297.2,78.7 298.2,79.1 299.1,79.5 300.1,79.8 301.1,80.2 302.0,80.6 303.0,81.0 304.0,81.3 304.9,81.7 305.9,82.1 306.8,82.5 307.8,82.8 308.8,83.2 309.7,83.6 310.7,84.0 311.7,84.3 312.6,84.7 313.6,85.1 314.5,85.5 315.5,85.8 316.5,86.2 317.4,86.6 318.4,87.0 319.4,87.4 320.3,87.7 321.3,88.1 322.3,88.5 323.2,88.9 324.2,89.3 325.1,89.6 326.1,90.0 327.1,90.4 328.0,90.8 329.0,91.2 329.9,91.5 330.9,91.9 331.9,92.3 332.8,92.7 333.8,93.1 334.8,93.5 335.7,93.8 336.7,94.2 337.6,94.6 338.6,95.0 339.6,95.4 340.5,95.7 341.5,96.1 342.5,96.5 343.4,96.9 344.4,97.3 345.4,97.6 346.3,98.0 347.3,98.4 348.2,98.8 349.2,99.2 350.2,99.6 351.1,99.9 352.1,100.3 353.0,100.7 354.0,101.1 355.0,101.5 355.9,101.9 356.9,102.2 357.9,102.6 358.8,103.0 359.8,103.4 360.8,103.8 361.7,104.2 362.7,104.5 363.6,104.9 364.6,105.3 365.6,105.7 366.5,106.1 367.5,106.4 368.4,106.8 369.4,107.2 370.4,107.6 371.3,108.0 372.3,108.4 373.3,108.7 374.2,109.1 375.2,109.5 376.1,109.9 377.1,110.3 378.1,110.7 379.0,111.0 380.0,111.4 381.0,111.8 381.9,112.2 382.9,112.6 383.9,113.0 384.8,113.3 385.8,113.7 386.7,114.1 387.7,114.5 388.7,114.9 389.6,115.3 390.6,115.6 391.5,116.0 392.5,116.4 393.5,116.8 394.4,117.2 395.4,117.6 396.4,117.9 397.3,118.3 398.3,118.7 399.2,119.1 400.2,119.5 401.2,119.9 402.1,120.2 403.1,120.6 404.1,121.0 405.0,121.4 406.0,121.8 406.9,122.2 407.9,122.5 408.9,122.9 409.8,123.3 410.8,123.7 411.8,124.1 412.7,124.5 413.7,124.8 414.7,125.2 415.6,125.6 416.6,126.0 417.5,126.4 418.5,126.8 419.5,127.1 420.4,127.5 421.4,127.9 422.3,128.3 423.3,128.7 424.3,129.1 425.2,129.4 426.2,129.8 427.2,130.2 428.1,130.6 429.1,131.0 430.0,131.4 431.0,131.7 432.0,132.1 432.9,132.5 433.9,132.9 434.9,133.3 435.8,133.7 436.8,134.0 437.7,134.4 438.7,134.8 439.7,135.2 440.6,135.6 441.6,136.0 442.6,136.3 443.5,136.7 444.5,137.1 445.4,137.5 446.4,137.9 447.4,138.3 448.3,138.6 449.3,139.0 450.3,139.4 451.2,139.8 452.2,140.2 453.1,140.6 454.1,140.9 455.1,141.3 456.0,141.7 457.0,142.1 458.0,142.5 458.9,142.9 459.9,143.2 460.9,143.6 461.8,144.0 462.8,144.4 463.7,144.8 464.7,145.2 465.7,145.5 466.6,145.9 467.6,146.3 468.6,146.7 469.5,147.1 470.5,147.5 471.4,147.8 472.4,148.2 473.4,148.6 474.3,149.0 475.3,149.4 476.2,149.7 477.2,150.1 478.2,150.5 479.1,150.9 480.1,151.3 481.1,151.7 482.0,152.0 483.0,152.4 484.0,152.8 484.9,153.2 485.9,153.6 486.8,154.0 487.8,154.3 488.8,154.7 489.7,155.1 490.7,155.5 491.6,155.9 492.6,156.3 493.6,156.6 494.5,157.0 495.5,157.4 496.5,157.8 497.4,158.2 498.4,158.5 499.3,158.9 500.3,159.3 501.3,159.7 502.2,160.1 503.2,160.5 504.2,160.8 505.1,161.2 506.1,161.6 507.0,162.0 508.0,162.4 509.0,162.8 509.9,163.1 510.9,163.5 511.9,163.9 512.8,164.3 513.8,164.7 514.8,165.0 515.7,165.4 516.7,165.8 517.6,166.2 518.6,166.6 519.6,166.9 520.5,167.3 521.5,167.7 522.4,168.1 523.4,168.5 524.4,168.8 525.3,169.2 526.3,169.6 527.3,170.0 528.2,170.4 529.2,170.7 530.1,171.1 531.1,171.5 532.1,171.9 533.0,172.2 534.0,172.6 535.0,173.0 535.9,173.4 536.9,173.8 537.9,174.1 538.8,174.5 539.8,174.9 540.7,175.3 541.7,175.6 542.7,176.0 543.6,176.4 544.6,176.8 545.5,177.1 546.5,177.5 547.5,177.9 548.4,178.3 549.4,178.6 550.4,179.0 551.3,179.4 552.3,179.7 553.2,180.1 554.2,180.5 555.2,180.9 556.1,181.2 557.1,181.6 558.1,182.0 559.0,182.3 560.0,182.7 560.9,183.1 561.9,183.4 562.9,183.8 563.8,184.1 564.8,184.5 565.8,184.9 566.7,185.2 567.7,185.6 568.6,186.0 569.6,186.3 570.6,186.7 571.5,187.0 572.5,187.4 573.5,187.7 574.4,188.1 575.4,188.4 576.4,188.8 577.3,189.2 578.3,189.5 579.2,189.9 580.2,190.2 581.2,190.6 582.1,190.9 583.1,191.2 584.0,191.6 585.0,191.9 586.0,192.3 586.9,192.6 587.9,193.0 588.9,193.3 589.8,193.6 590.8,194.0 591.7,194.3 592.7,194.7 593.7,195.0 594.6,195.3 595.6,195.7 596.6,196.0 597.5,196.4 598.5,196.7 599.4,197.0 600.4,197.4 601.4,197.7 602.3,198.0 603.3,198.4 604.3,198.7 605.2,199.0 606.2,199.3 607.2,199.7 608.1,200.0 609.1,200.3 610.0,200.7 611.0,201.0 612.0,201.3 612.9,201.7 613.9,202.0 614.8,202.3 615.8,202.7 616.8,203.0 617.7,203.3 618.7,203.7 619.7,204.0 620.6,204.3 621.6,204.7 622.5,205.0 623.5,205.3 624.5,205.7 625.4,206.0 626.4,206.3 627.4,206.7 628.3,207.0 629.3,207.3 630.2,207.6 631.2,208.0 632.2,208.3 633.1,208.6 634.1,209.0 635.1,209.3 636.0,209.6 637.0,210.0 637.9,210.3 638.9,210.6 639.9,211.0 640.8,211.3 641.8,211.6 642.8,211.9 643.7,212.3 644.7,212.6 645.6,212.9 646.6,213.2 647.6,213.6 648.5,213.9 649.5,214.2 650.5,214.5 651.4,214.8 652.4,215.1 653.4,215.5 654.3,215.8 655.3,216.1 656.2,216.4 657.2,216.7 658.2,217.0 659.1,217.3 660.1,217.6 661.1,217.9 662.0,218.2 663.0,218.5 663.9,218.8 664.9,219.1 665.9,219.4 666.8,219.7 667.8,220.0 668.7,220.3 669.7,220.6 670.7,220.8 671.6,221.1 672.6,221.4 673.6,221.7 674.5,222.0 675.5,222.3 676.5,222.6 677.4,222.8 678.4,223.1 679.3,223.4 680.3,223.7 681.3,224.0 682.2,224.3 683.2,224.5 684.1,224.8 685.1,225.1 686.1,225.4 687.0,225.7 688.0,226.0 689.0,226.3 689.9,226.6 690.9,226.9 691.8,227.2 692.8,227.5 693.8,227.8 694.7,228.1 695.7,228.4 696.7,228.7 697.6,229.0 698.6,229.4 699.5,229.7 700.5,230.0 701.5,230.4 702.4,230.7 703.4,231.0 704.4,231.4 705.3,231.7 706.3,232.1 707.3,232.4 708.2,232.8 709.2,233.1 710.1,233.5 711.1,233.9 712.1,234.2 713.0,234.6 714.0,235.0 714.9,235.3 715.9,235.7 716.9,236.0 717.8,236.4 718.8,236.7 719.8,237.1 720.7,237.4 721.7,237.8 722.6,238.1 723.6,238.5 724.6,238.8 725.5,239.1 726.5,239.4 727.5,239.8 728.4,240.1 729.4,240.4 730.4,240.7 731.3,241.0 732.3,241.3 733.2,241.6 734.2,241.9 735.2,242.2 736.1,242.4 737.1,242.7 738.0,243.0 739.0,243.3 740.0,243.5 740.9,243.8 741.9,244.1 742.9,244.3 743.8,244.6 744.8,244.8 745.8,245.1 746.7,245.4 747.7,245.6 748.6,245.9 749.6,246.1 750.6,246.3 751.5,246.6 752.5,246.8 753.4,247.1 754.4,247.3 755.4,247.6 756.3,247.8 757.3,248.0 758.3,248.3 759.2,248.5 760.2,248.7 761.1,249.0 762.1,249.2 763.1,249.4 764.0,249.7 765.0,249.9 766.0,250.1 766.9,250.4 767.9,250.6 768.9,250.8 769.8,251.1 770.8,251.3 771.7,251.5 772.7,251.8 773.7,252.0 774.6,252.2 775.6,252.5 776.5,252.7 777.5,253.0 778.5,253.2 779.4,253.5 780.4,253.7 781.4,254.0 782.3,254.2 783.3,254.5 784.2,254.7 785.2,255.0 786.2,255.3 787.1,255.5 788.1,255.8 789.1,256.1 790.0,256.3 791.0,256.6 791.9,256.9 792.9,257.2 793.9,257.5 794.8,257.8 795.8,258.1 796.8,258.3 797.7,258.6 798.7,258.9 799.7,259.2 800.6,259.5 801.6,259.8 802.5,260.2 803.5,260.5 804.5,260.8 805.4,261.1 806.4,261.4 807.3,261.7 808.3,262.0 809.3,262.3 810.2,262.6 811.2,262.9 812.2,263.2 813.1,263.5 814.1,263.8 815.0,264.1 816.0,264.4 817.0,264.7 817.9,265.0 818.9,265.3 819.9,265.5 820.8,265.8 821.8,266.0 822.7,266.3 823.7,266.5 824.7,266.8 825.6,267.0 826.6,267.2 827.6,267.4 828.5,267.6 829.5,267.8 830.4,267.9 831.4,268.1 832.4,268.2 833.3,268.3 834.3,268.4 835.3,268.5 836.2,268.6 837.2,268.6 838.1,268.6 839.1,268.6 840.1,268.6 841.0,268.5 842.0,268.5" fill="none" stroke="#2e7d4f" stroke-width="1.6" stroke-linejoin="round"/>
<polyline points="72.0,64.2 73.0,64.2 73.9,64.2 74.9,64.2 75.9,64.2 76.8,64.2 77.8,64.2 78.7,64.2 79.7,64.2 80.7,64.2 81.6,64.2 82.6,64.2 83.6,64.2 84.5,64.2 85.5,64.2 86.4,64.2 87.4,64.2 88.4,64.2 89.3,64.2 90.3,64.2 91.2,64.2 92.2,64.2 93.2,64.2 94.1,64.2 95.1,64.2 96.1,64.2 97.0,64.2 98.0,64.2 99.0,64.2 99.9,64.2 100.9,64.2 101.8,64.2 102.8,64.2 103.8,64.2 104.7,64.2 105.7,64.2 106.6,64.2 107.6,64.2 108.6,64.2 109.5,64.2 110.5,64.2 111.5,64.2 112.4,64.2 113.4,64.2 114.3,64.2 115.3,64.3 116.3,64.3 117.2,64.3 118.2,64.3 119.2,64.3 120.1,64.3 121.1,64.3 122.0,64.3 123.0,64.3 124.0,64.3 124.9,64.3 125.9,64.3 126.9,64.3 127.8,64.3 128.8,64.3 129.8,64.3 130.7,64.3 131.7,64.3 132.6,64.3 133.6,64.3 134.6,64.3 135.5,64.3 136.5,64.3 137.4,64.3 138.4,64.3 139.4,64.3 140.3,64.3 141.3,64.3 142.3,64.3 143.2,64.4 144.2,64.4 145.1,64.4 146.1,64.4 147.1,64.4 148.0,64.4 149.0,64.4 150.0,64.4 150.9,64.4 151.9,64.4 152.9,64.4 153.8,64.4 154.8,64.5 155.7,64.5 156.7,64.5 157.7,64.5 158.6,64.5 159.6,64.5 160.5,64.5 161.5,64.5 162.5,64.6 163.4,64.6 164.4,64.6 165.4,64.6 166.3,64.6 167.3,64.7 168.2,64.7 169.2,64.7 170.2,64.7 171.1,64.7 172.1,64.8 173.1,64.8 174.0,64.8 175.0,64.8 175.9,64.9 176.9,64.9 177.9,64.9 178.8,65.0 179.8,65.0 180.8,65.0 181.7,65.1 182.7,65.1 183.6,65.1 184.6,65.2 185.6,65.2 186.5,65.3 187.5,65.3 188.5,65.4 189.4,65.4 190.4,65.5 191.4,65.5 192.3,65.6 193.3,65.6 194.2,65.7 195.2,65.8 196.2,65.8 197.1,65.9 198.1,66.0 199.0,66.0 200.0,66.1 201.0,66.2 201.9,66.3 202.9,66.4 203.9,66.5 204.8,66.6 205.8,66.7 206.7,66.8 207.7,66.9 208.7,67.0 209.6,67.1 210.6,67.2 211.6,67.3 212.5,67.4 213.5,67.6 214.4,67.7 215.4,67.8 216.4,68.0 217.3,68.1 218.3,68.2 219.3,68.4 220.2,68.5 221.2,68.7 222.2,68.9 223.1,69.0 224.1,69.2 225.0,69.4 226.0,69.6 227.0,69.7 227.9,69.9 228.9,70.1 229.8,70.3 230.8,70.5 231.8,70.7 232.7,71.0 233.7,71.2 234.7,71.4 235.6,71.6 236.6,71.8 237.5,72.1 238.5,72.3 239.5,72.6 240.4,72.8 241.4,73.0 242.4,73.3 243.3,73.6 244.3,73.8 245.2,74.1 246.2,74.4 247.2,74.6 248.1,74.9 249.1,75.2 250.1,75.5 251.0,75.8 252.0,76.0 252.9,76.3 253.9,76.6 254.9,76.9 255.8,77.2 256.8,77.5 257.8,77.8 258.7,78.2 259.7,78.5 260.6,78.8 261.6,79.1 262.6,79.4 263.5,79.8 264.5,80.1 265.5,80.4 266.4,80.7 267.4,81.1 268.4,81.4 269.3,81.7 270.3,82.1 271.2,82.4 272.2,82.8 273.2,83.1 274.1,83.4 275.1,83.8 276.1,84.1 277.0,84.5 278.0,84.8 278.9,85.2 279.9,85.5 280.9,85.9 281.8,86.3 282.8,86.6 283.7,87.0 284.7,87.3 285.7,87.7 286.6,88.1 287.6,88.4 288.6,88.8 289.5,89.1 290.5,89.5 291.5,89.9 292.4,90.2 293.4,90.6 294.3,91.0 295.3,91.3 296.3,91.7 297.2,92.1 298.2,92.4 299.1,92.8 300.1,93.2 301.1,93.6 302.0,93.9 303.0,94.3 304.0,94.7 304.9,95.1 305.9,95.4 306.8,95.8 307.8,96.2 308.8,96.6 309.7,96.9 310.7,97.3 311.7,97.7 312.6,98.1 313.6,98.4 314.5,98.8 315.5,99.2 316.5,99.6 317.4,99.9 318.4,100.3 319.4,100.7 320.3,101.1 321.3,101.5 322.3,101.8 323.2,102.2 324.2,102.6 325.1,103.0 326.1,103.4 327.1,103.7 328.0,104.1 329.0,104.5 329.9,104.9 330.9,105.3 331.9,105.6 332.8,106.0 333.8,106.4 334.8,106.8 335.7,107.2 336.7,107.5 337.6,107.9 338.6,108.3 339.6,108.7 340.5,109.1 341.5,109.5 342.5,109.8 343.4,110.2 344.4,110.6 345.4,111.0 346.3,111.4 347.3,111.7 348.2,112.1 349.2,112.5 350.2,112.9 351.1,113.3 352.1,113.7 353.0,114.0 354.0,114.4 355.0,114.8 355.9,115.2 356.9,115.6 357.9,116.0 358.8,116.3 359.8,116.7 360.8,117.1 361.7,117.5 362.7,117.9 363.6,118.2 364.6,118.6 365.6,119.0 366.5,119.4 367.5,119.8 368.4,120.2 369.4,120.5 370.4,120.9 371.3,121.3 372.3,121.7 373.3,122.1 374.2,122.5 375.2,122.8 376.1,123.2 377.1,123.6 378.1,124.0 379.0,124.4 380.0,124.8 381.0,125.1 381.9,125.5 382.9,125.9 383.9,126.3 384.8,126.7 385.8,127.1 386.7,127.4 387.7,127.8 388.7,128.2 389.6,128.6 390.6,129.0 391.5,129.4 392.5,129.7 393.5,130.1 394.4,130.5 395.4,130.9 396.4,131.3 397.3,131.7 398.3,132.0 399.2,132.4 400.2,132.8 401.2,133.2 402.1,133.6 403.1,134.0 404.1,134.3 405.0,134.7 406.0,135.1 406.9,135.5 407.9,135.9 408.9,136.3 409.8,136.6 410.8,137.0 411.8,137.4 412.7,137.8 413.7,138.2 414.7,138.6 415.6,138.9 416.6,139.3 417.5,139.7 418.5,140.1 419.5,140.5 420.4,140.9 421.4,141.2 422.3,141.6 423.3,142.0 424.3,142.4 425.2,142.8 426.2,143.1 427.2,143.5 428.1,143.9 429.1,144.3 430.0,144.7 431.0,145.1 432.0,145.4 432.9,145.8 433.9,146.2 434.9,146.6 435.8,147.0 436.8,147.4 437.7,147.7 438.7,148.1 439.7,148.5 440.6,148.9 441.6,149.3 442.6,149.7 443.5,150.0 444.5,150.4 445.4,150.8 446.4,151.2 447.4,151.6 448.3,152.0 449.3,152.3 450.3,152.7 451.2,153.1 452.2,153.5 453.1,153.9 454.1,154.3 455.1,154.6 456.0,155.0 457.0,155.4 458.0,155.8 458.9,156.2 459.9,156.6 460.9,156.9 461.8,157.3 462.8,157.7 463.7,158.1 464.7,158.5 465.7,158.9 466.6,159.2 467.6,159.6 468.6,160.0 469.5,160.4 470.5,160.8 471.4,161.2 472.4,161.5 473.4,161.9 474.3,162.3 475.3,162.7 476.2,163.1 477.2,163.4 478.2,163.8 479.1,164.2 480.1,164.6 481.1,165.0 482.0,165.4 483.0,165.7 484.0,166.1 484.9,166.5 485.9,166.9 486.8,167.3 487.8,167.7 488.8,168.0 489.7,168.4 490.7,168.8 491.6,169.2 492.6,169.6 493.6,169.9 494.5,170.3 495.5,170.7 496.5,171.1 497.4,171.5 498.4,171.9 499.3,172.2 500.3,172.6 501.3,173.0 502.2,173.4 503.2,173.8 504.2,174.1 505.1,174.5 506.1,174.9 507.0,175.3 508.0,175.7 509.0,176.0 509.9,176.4 510.9,176.8 511.9,177.2 512.8,177.6 513.8,177.9 514.8,178.3 515.7,178.7 516.7,179.1 517.6,179.4 518.6,179.8 519.6,180.2 520.5,180.6 521.5,181.0 522.4,181.3 523.4,181.7 524.4,182.1 525.3,182.5 526.3,182.8 527.3,183.2 528.2,183.6 529.2,184.0 530.1,184.3 531.1,184.7 532.1,185.1 533.0,185.4 534.0,185.8 535.0,186.2 535.9,186.6 536.9,186.9 537.9,187.3 538.8,187.7 539.8,188.0 540.7,188.4 541.7,188.8 542.7,189.1 543.6,189.5 544.6,189.9 545.5,190.2 546.5,190.6 547.5,190.9 548.4,191.3 549.4,191.7 550.4,192.0 551.3,192.4 552.3,192.7 553.2,193.1 554.2,193.4 555.2,193.8 556.1,194.2 557.1,194.5 558.1,194.9 559.0,195.2 560.0,195.5 560.9,195.9 561.9,196.2 562.9,196.6 563.8,196.9 564.8,197.2 565.8,197.6 566.7,197.9 567.7,198.3 568.6,198.6 569.6,198.9 570.6,199.2 571.5,199.6 572.5,199.9 573.5,200.2 574.4,200.5 575.4,200.8 576.4,201.1 577.3,201.5 578.3,201.8 579.2,202.1 580.2,202.4 581.2,202.7 582.1,203.0 583.1,203.3 584.0,203.6 585.0,203.8 586.0,204.1 586.9,204.4 587.9,204.7 588.9,205.0 589.8,205.2 590.8,205.5 591.7,205.8 592.7,206.0 593.7,206.3 594.6,206.6 595.6,206.8 596.6,207.1 597.5,207.3 598.5,207.6 599.4,207.8 600.4,208.0 601.4,208.3 602.3,208.5 603.3,208.7 604.3,209.0 605.2,209.2 606.2,209.4 607.2,209.6 608.1,209.9 609.1,210.1 610.0,210.3 611.0,210.5 612.0,210.7 612.9,210.9 613.9,211.1 614.8,211.3 615.8,211.5 616.8,211.7 617.7,211.9 618.7,212.1 619.7,212.3 620.6,212.5 621.6,212.7 622.5,212.9 623.5,213.1 624.5,213.2 625.4,213.4 626.4,213.6 627.4,213.8 628.3,214.0 629.3,214.2 630.2,214.3 631.2,214.5 632.2,214.7 633.1,214.9 634.1,215.1 635.1,215.2 636.0,215.4 637.0,215.6 637.9,215.8 638.9,216.0 639.9,216.1 640.8,216.3 641.8,216.5 642.8,216.7 643.7,216.9 644.7,217.1 645.6,217.2 646.6,217.4 647.6,217.6 648.5,217.8 649.5,218.0 650.5,218.2 651.4,218.4 652.4,218.6 653.4,218.8 654.3,218.9 655.3,219.1 656.2,219.3 657.2,219.5 658.2,219.7 659.1,219.9 660.1,220.1 661.1,220.3 662.0,220.5 663.0,220.7 663.9,220.9 664.9,221.1 665.9,221.3 666.8,221.5 667.8,221.8 668.7,222.0 669.7,222.2 670.7,222.4 671.6,222.6 672.6,222.8 673.6,223.0 674.5,223.3 675.5,223.5 676.5,223.7 677.4,223.9 678.4,224.2 679.3,224.4 680.3,224.6 681.3,224.9 682.2,225.1 683.2,225.3 684.1,225.6 685.1,225.8 686.1,226.1 687.0,226.3 688.0,226.6 689.0,226.8 689.9,227.1 690.9,227.4 691.8,227.6 692.8,227.9 693.8,228.2 694.7,228.5 695.7,228.8 696.7,229.0 697.6,229.3 698.6,229.6 699.5,230.0 700.5,230.3 701.5,230.6 702.4,230.9 703.4,231.2 704.4,231.5 705.3,231.9 706.3,232.2 707.3,232.6 708.2,232.9 709.2,233.2 710.1,233.6 711.1,233.9 712.1,234.3 713.0,234.7 714.0,235.0 714.9,235.4 715.9,235.7 716.9,236.1 717.8,236.4 718.8,236.8 719.8,237.1 720.7,237.4 721.7,237.8 722.6,238.1 723.6,238.4 724.6,238.8 725.5,239.1 726.5,239.4 727.5,239.7 728.4,240.0 729.4,240.3 730.4,240.6 731.3,240.9 732.3,241.2 733.2,241.5 734.2,241.8 735.2,242.1 736.1,242.4 737.1,242.6 738.0,242.9 739.0,243.2 740.0,243.4 740.9,243.7 741.9,244.0 742.9,244.2 743.8,244.5 744.8,244.7 745.8,245.0 746.7,245.2 747.7,245.5 748.6,245.7 749.6,246.0 750.6,246.2 751.5,246.5 752.5,246.7 753.4,247.0 754.4,247.2 755.4,247.4 756.3,247.7 757.3,247.9 758.3,248.1 759.2,248.4 760.2,248.6 761.1,248.8 762.1,249.1 763.1,249.3 764.0,249.5 765.0,249.8 766.0,250.0 766.9,250.2 767.9,250.5 768.9,250.7 769.8,250.9 770.8,251.2 771.7,251.4 772.7,251.6 773.7,251.9 774.6,252.1 775.6,252.4 776.5,252.6 777.5,252.8 778.5,253.1 779.4,253.3 780.4,253.6 781.4,253.8 782.3,254.1 783.3,254.4 784.2,254.6 785.2,254.9 786.2,255.2 787.1,255.4 788.1,255.7 789.1,256.0 790.0,256.2 791.0,256.5 791.9,256.8 792.9,257.1 793.9,257.4 794.8,257.7 795.8,258.0 796.8,258.3 797.7,258.6 798.7,258.9 799.7,259.2 800.6,259.5 801.6,259.8 802.5,260.1 803.5,260.4 804.5,260.7 805.4,261.0 806.4,261.3 807.3,261.6 808.3,261.9 809.3,262.2 810.2,262.5 811.2,262.9 812.2,263.2 813.1,263.5 814.1,263.8 815.0,264.1 816.0,264.3 817.0,264.6 817.9,264.9 818.9,265.2 819.9,265.5 820.8,265.7 821.8,266.0 822.7,266.3 823.7,266.5 824.7,266.7 825.6,267.0 826.6,267.2 827.6,267.4 828.5,267.6 829.5,267.8 830.4,267.9 831.4,268.1 832.4,268.2 833.3,268.3 834.3,268.4 835.3,268.5 836.2,268.5 837.2,268.6 838.1,268.6 839.1,268.6 840.1,268.6 841.0,268.5 842.0,268.5" fill="none" stroke="#a8452a" stroke-width="1.6" stroke-linejoin="round"/>
<rect x="72" y="46" width="770" height="230" fill="none" stroke="#333333" stroke-width="1.2"/>
<line x1="72.0" y1="276" x2="72.0" y2="281" stroke="#333333" stroke-width="1.2"/>
<line x1="168.2" y1="276" x2="168.2" y2="281" stroke="#333333" stroke-width="1.2"/>
<line x1="264.5" y1="276" x2="264.5" y2="281" stroke="#333333" stroke-width="1.2"/>
<line x1="360.8" y1="276" x2="360.8" y2="281" stroke="#333333" stroke-width="1.2"/>
<line x1="457.0" y1="276" x2="457.0" y2="281" stroke="#333333" stroke-width="1.2"/>
<line x1="553.2" y1="276" x2="553.2" y2="281" stroke="#333333" stroke-width="1.2"/>
<line x1="649.5" y1="276" x2="649.5" y2="281" stroke="#333333" stroke-width="1.2"/>
<line x1="745.8" y1="276" x2="745.8" y2="281" stroke="#333333" stroke-width="1.2"/>
<line x1="842.0" y1="276" x2="842.0" y2="281" stroke="#333333" stroke-width="1.2"/>
<line x1="67" y1="276.0" x2="72" y2="276.0" stroke="#333333" stroke-width="1.2"/>
<text x="63" y="280.0" text-anchor="end" font-size="11" fill="#333333">-40</text>
<line x1="67" y1="237.7" x2="72" y2="237.7" stroke="#333333" stroke-width="1.2"/>
<text x="63" y="241.7" text-anchor="end" font-size="11" fill="#333333">-20</text>
<line x1="67" y1="199.3" x2="72" y2="199.3" stroke="#333333" stroke-width="1.2"/>
<text x="63" y="203.3" text-anchor="end" font-size="11" fill="#333333">0</text>
<line x1="67" y1="161.0" x2="72" y2="161.0" stroke="#333333" stroke-width="1.2"/>
<text x="63" y="165.0" text-anchor="end" font-size="11" fill="#333333">20</text>
<line x1="67" y1="122.7" x2="72" y2="122.7" stroke="#333333" stroke-width="1.2"/>
<text x="63" y="126.7" text-anchor="end" font-size="11" fill="#333333">40</text>
<line x1="67" y1="84.3" x2="72" y2="84.3" stroke="#333333" stroke-width="1.2"/>
<text x="63" y="88.3" text-anchor="end" font-size="11" fill="#333333">60</text>
<line x1="67" y1="46.0" x2="72" y2="46.0" stroke="#333333" stroke-width="1.2"/>
<text x="63" y="50.0" text-anchor="end" font-size="11" fill="#333333">80</text>
<text x="24" y="161.0" text-anchor="middle" font-size="12" fill="#333333" transform="rotate(-90 24 161.0)">|T| [dB]</text>
<text x="72" y="36" font-size="13" font-weight="600" fill="#333333">Guadagno d'anello del blocco B alla capacità del minimo (sorgente 2,5 kΩ, carico 100 kΩ)</text>
<rect x="72" y="330" width="770" height="190" fill="#ffffff" stroke="none"/>
<line x1="101.0" y1="330" x2="101.0" y2="520" stroke="#f2f2f2" stroke-width="1"/>
<line x1="117.9" y1="330" x2="117.9" y2="520" stroke="#f2f2f2" stroke-width="1"/>
<line x1="129.9" y1="330" x2="129.9" y2="520" stroke="#f2f2f2" stroke-width="1"/>
<line x1="139.3" y1="330" x2="139.3" y2="520" stroke="#f2f2f2" stroke-width="1"/>
<line x1="146.9" y1="330" x2="146.9" y2="520" stroke="#f2f2f2" stroke-width="1"/>
<line x1="153.3" y1="330" x2="153.3" y2="520" stroke="#f2f2f2" stroke-width="1"/>
<line x1="158.9" y1="330" x2="158.9" y2="520" stroke="#f2f2f2" stroke-width="1"/>
<line x1="163.8" y1="330" x2="163.8" y2="520" stroke="#f2f2f2" stroke-width="1"/>
<line x1="197.2" y1="330" x2="197.2" y2="520" stroke="#f2f2f2" stroke-width="1"/>
<line x1="214.2" y1="330" x2="214.2" y2="520" stroke="#f2f2f2" stroke-width="1"/>
<line x1="226.2" y1="330" x2="226.2" y2="520" stroke="#f2f2f2" stroke-width="1"/>
<line x1="235.5" y1="330" x2="235.5" y2="520" stroke="#f2f2f2" stroke-width="1"/>
<line x1="243.1" y1="330" x2="243.1" y2="520" stroke="#f2f2f2" stroke-width="1"/>
<line x1="249.6" y1="330" x2="249.6" y2="520" stroke="#f2f2f2" stroke-width="1"/>
<line x1="255.2" y1="330" x2="255.2" y2="520" stroke="#f2f2f2" stroke-width="1"/>
<line x1="260.1" y1="330" x2="260.1" y2="520" stroke="#f2f2f2" stroke-width="1"/>
<line x1="293.5" y1="330" x2="293.5" y2="520" stroke="#f2f2f2" stroke-width="1"/>
<line x1="310.4" y1="330" x2="310.4" y2="520" stroke="#f2f2f2" stroke-width="1"/>
<line x1="322.4" y1="330" x2="322.4" y2="520" stroke="#f2f2f2" stroke-width="1"/>
<line x1="331.8" y1="330" x2="331.8" y2="520" stroke="#f2f2f2" stroke-width="1"/>
<line x1="339.4" y1="330" x2="339.4" y2="520" stroke="#f2f2f2" stroke-width="1"/>
<line x1="345.8" y1="330" x2="345.8" y2="520" stroke="#f2f2f2" stroke-width="1"/>
<line x1="351.4" y1="330" x2="351.4" y2="520" stroke="#f2f2f2" stroke-width="1"/>
<line x1="356.3" y1="330" x2="356.3" y2="520" stroke="#f2f2f2" stroke-width="1"/>
<line x1="389.7" y1="330" x2="389.7" y2="520" stroke="#f2f2f2" stroke-width="1"/>
<line x1="406.7" y1="330" x2="406.7" y2="520" stroke="#f2f2f2" stroke-width="1"/>
<line x1="418.7" y1="330" x2="418.7" y2="520" stroke="#f2f2f2" stroke-width="1"/>
<line x1="428.0" y1="330" x2="428.0" y2="520" stroke="#f2f2f2" stroke-width="1"/>
<line x1="435.6" y1="330" x2="435.6" y2="520" stroke="#f2f2f2" stroke-width="1"/>
<line x1="442.1" y1="330" x2="442.1" y2="520" stroke="#f2f2f2" stroke-width="1"/>
<line x1="447.7" y1="330" x2="447.7" y2="520" stroke="#f2f2f2" stroke-width="1"/>
<line x1="452.6" y1="330" x2="452.6" y2="520" stroke="#f2f2f2" stroke-width="1"/>
<line x1="486.0" y1="330" x2="486.0" y2="520" stroke="#f2f2f2" stroke-width="1"/>
<line x1="502.9" y1="330" x2="502.9" y2="520" stroke="#f2f2f2" stroke-width="1"/>
<line x1="514.9" y1="330" x2="514.9" y2="520" stroke="#f2f2f2" stroke-width="1"/>
<line x1="524.3" y1="330" x2="524.3" y2="520" stroke="#f2f2f2" stroke-width="1"/>
<line x1="531.9" y1="330" x2="531.9" y2="520" stroke="#f2f2f2" stroke-width="1"/>
<line x1="538.3" y1="330" x2="538.3" y2="520" stroke="#f2f2f2" stroke-width="1"/>
<line x1="543.9" y1="330" x2="543.9" y2="520" stroke="#f2f2f2" stroke-width="1"/>
<line x1="548.8" y1="330" x2="548.8" y2="520" stroke="#f2f2f2" stroke-width="1"/>
<line x1="582.2" y1="330" x2="582.2" y2="520" stroke="#f2f2f2" stroke-width="1"/>
<line x1="599.2" y1="330" x2="599.2" y2="520" stroke="#f2f2f2" stroke-width="1"/>
<line x1="611.2" y1="330" x2="611.2" y2="520" stroke="#f2f2f2" stroke-width="1"/>
<line x1="620.5" y1="330" x2="620.5" y2="520" stroke="#f2f2f2" stroke-width="1"/>
<line x1="628.1" y1="330" x2="628.1" y2="520" stroke="#f2f2f2" stroke-width="1"/>
<line x1="634.6" y1="330" x2="634.6" y2="520" stroke="#f2f2f2" stroke-width="1"/>
<line x1="640.2" y1="330" x2="640.2" y2="520" stroke="#f2f2f2" stroke-width="1"/>
<line x1="645.1" y1="330" x2="645.1" y2="520" stroke="#f2f2f2" stroke-width="1"/>
<line x1="678.5" y1="330" x2="678.5" y2="520" stroke="#f2f2f2" stroke-width="1"/>
<line x1="695.4" y1="330" x2="695.4" y2="520" stroke="#f2f2f2" stroke-width="1"/>
<line x1="707.4" y1="330" x2="707.4" y2="520" stroke="#f2f2f2" stroke-width="1"/>
<line x1="716.8" y1="330" x2="716.8" y2="520" stroke="#f2f2f2" stroke-width="1"/>
<line x1="724.4" y1="330" x2="724.4" y2="520" stroke="#f2f2f2" stroke-width="1"/>
<line x1="730.8" y1="330" x2="730.8" y2="520" stroke="#f2f2f2" stroke-width="1"/>
<line x1="736.4" y1="330" x2="736.4" y2="520" stroke="#f2f2f2" stroke-width="1"/>
<line x1="741.3" y1="330" x2="741.3" y2="520" stroke="#f2f2f2" stroke-width="1"/>
<line x1="774.7" y1="330" x2="774.7" y2="520" stroke="#f2f2f2" stroke-width="1"/>
<line x1="791.7" y1="330" x2="791.7" y2="520" stroke="#f2f2f2" stroke-width="1"/>
<line x1="803.7" y1="330" x2="803.7" y2="520" stroke="#f2f2f2" stroke-width="1"/>
<line x1="813.0" y1="330" x2="813.0" y2="520" stroke="#f2f2f2" stroke-width="1"/>
<line x1="820.6" y1="330" x2="820.6" y2="520" stroke="#f2f2f2" stroke-width="1"/>
<line x1="827.1" y1="330" x2="827.1" y2="520" stroke="#f2f2f2" stroke-width="1"/>
<line x1="832.7" y1="330" x2="832.7" y2="520" stroke="#f2f2f2" stroke-width="1"/>
<line x1="837.6" y1="330" x2="837.6" y2="520" stroke="#f2f2f2" stroke-width="1"/>
<line x1="72.0" y1="330" x2="72.0" y2="520" stroke="#e0e0e0" stroke-width="1"/>
<line x1="168.2" y1="330" x2="168.2" y2="520" stroke="#e0e0e0" stroke-width="1"/>
<line x1="264.5" y1="330" x2="264.5" y2="520" stroke="#e0e0e0" stroke-width="1"/>
<line x1="360.8" y1="330" x2="360.8" y2="520" stroke="#e0e0e0" stroke-width="1"/>
<line x1="457.0" y1="330" x2="457.0" y2="520" stroke="#e0e0e0" stroke-width="1"/>
<line x1="553.2" y1="330" x2="553.2" y2="520" stroke="#e0e0e0" stroke-width="1"/>
<line x1="649.5" y1="330" x2="649.5" y2="520" stroke="#e0e0e0" stroke-width="1"/>
<line x1="745.8" y1="330" x2="745.8" y2="520" stroke="#e0e0e0" stroke-width="1"/>
<line x1="842.0" y1="330" x2="842.0" y2="520" stroke="#e0e0e0" stroke-width="1"/>
<line x1="72" y1="520.0" x2="842" y2="520.0" stroke="#e0e0e0" stroke-width="1"/>
<line x1="72" y1="488.3" x2="842" y2="488.3" stroke="#e0e0e0" stroke-width="1"/>
<line x1="72" y1="456.7" x2="842" y2="456.7" stroke="#e0e0e0" stroke-width="1"/>
<line x1="72" y1="425.0" x2="842" y2="425.0" stroke="#e0e0e0" stroke-width="1"/>
<line x1="72" y1="393.3" x2="842" y2="393.3" stroke="#e0e0e0" stroke-width="1"/>
<line x1="72" y1="361.7" x2="842" y2="361.7" stroke="#e0e0e0" stroke-width="1"/>
<line x1="72" y1="330.0" x2="842" y2="330.0" stroke="#e0e0e0" stroke-width="1"/>
<polyline points="72.0,331.7 73.0,331.7 73.9,331.8 74.9,331.8 75.9,331.9 76.8,331.9 77.8,331.9 78.7,332.0 79.7,332.0 80.7,332.1 81.6,332.1 82.6,332.2 83.6,332.2 84.5,332.2 85.5,332.3 86.4,332.3 87.4,332.4 88.4,332.5 89.3,332.5 90.3,332.6 91.2,332.6 92.2,332.7 93.2,332.7 94.1,332.8 95.1,332.9 96.1,332.9 97.0,333.0 98.0,333.1 99.0,333.1 99.9,333.2 100.9,333.3 101.8,333.3 102.8,333.4 103.8,333.5 104.7,333.6 105.7,333.7 106.6,333.7 107.6,333.8 108.6,333.9 109.5,334.0 110.5,334.1 111.5,334.2 112.4,334.3 113.4,334.4 114.3,334.5 115.3,334.6 116.3,334.7 117.2,334.8 118.2,334.9 119.2,335.0 120.1,335.1 121.1,335.2 122.0,335.4 123.0,335.5 124.0,335.6 124.9,335.7 125.9,335.9 126.9,336.0 127.8,336.1 128.8,336.3 129.8,336.4 130.7,336.6 131.7,336.7 132.6,336.9 133.6,337.0 134.6,337.2 135.5,337.3 136.5,337.5 137.4,337.7 138.4,337.9 139.4,338.0 140.3,338.2 141.3,338.4 142.3,338.6 143.2,338.8 144.2,339.0 145.1,339.2 146.1,339.4 147.1,339.6 148.0,339.9 149.0,340.1 150.0,340.3 150.9,340.6 151.9,340.8 152.9,341.0 153.8,341.3 154.8,341.5 155.7,341.8 156.7,342.1 157.7,342.3 158.6,342.6 159.6,342.9 160.5,343.2 161.5,343.5 162.5,343.8 163.4,344.1 164.4,344.4 165.4,344.8 166.3,345.1 167.3,345.4 168.2,345.8 169.2,346.1 170.2,346.5 171.1,346.8 172.1,347.2 173.1,347.6 174.0,348.0 175.0,348.4 175.9,348.8 176.9,349.2 177.9,349.6 178.8,350.0 179.8,350.4 180.8,350.9 181.7,351.3 182.7,351.8 183.6,352.3 184.6,352.7 185.6,353.2 186.5,353.7 187.5,354.2 188.5,354.7 189.4,355.2 190.4,355.7 191.4,356.3 192.3,356.8 193.3,357.3 194.2,357.9 195.2,358.5 196.2,359.0 197.1,359.6 198.1,360.2 199.0,360.8 200.0,361.4 201.0,362.0 201.9,362.6 202.9,363.2 203.9,363.8 204.8,364.5 205.8,365.1 206.7,365.8 207.7,366.4 208.7,367.1 209.6,367.7 210.6,368.4 211.6,369.1 212.5,369.7 213.5,370.4 214.4,371.1 215.4,371.8 216.4,372.5 217.3,373.2 218.3,373.9 219.3,374.5 220.2,375.2 221.2,375.9 222.2,376.6 223.1,377.3 224.1,378.0 225.0,378.7 226.0,379.4 227.0,380.1 227.9,380.8 228.9,381.5 229.8,382.2 230.8,382.9 231.8,383.6 232.7,384.3 233.7,384.9 234.7,385.6 235.6,386.3 236.6,387.0 237.5,387.6 238.5,388.3 239.5,388.9 240.4,389.6 241.4,390.2 242.4,390.9 243.3,391.5 244.3,392.1 245.2,392.7 246.2,393.3 247.2,393.9 248.1,394.5 249.1,395.1 250.1,395.7 251.0,396.3 252.0,396.8 252.9,397.4 253.9,397.9 254.9,398.5 255.8,399.0 256.8,399.5 257.8,400.0 258.7,400.6 259.7,401.1 260.6,401.5 261.6,402.0 262.6,402.5 263.5,403.0 264.5,403.4 265.5,403.9 266.4,404.3 267.4,404.8 268.4,405.2 269.3,405.6 270.3,406.0 271.2,406.4 272.2,406.8 273.2,407.2 274.1,407.6 275.1,408.0 276.1,408.4 277.0,408.7 278.0,409.1 278.9,409.4 279.9,409.8 280.9,410.1 281.8,410.4 282.8,410.7 283.7,411.1 284.7,411.4 285.7,411.7 286.6,412.0 287.6,412.2 288.6,412.5 289.5,412.8 290.5,413.1 291.5,413.3 292.4,413.6 293.4,413.9 294.3,414.1 295.3,414.3 296.3,414.6 297.2,414.8 298.2,415.0 299.1,415.3 300.1,415.5 301.1,415.7 302.0,415.9 303.0,416.1 304.0,416.3 304.9,416.5 305.9,416.7 306.8,416.9 307.8,417.1 308.8,417.3 309.7,417.4 310.7,417.6 311.7,417.8 312.6,417.9 313.6,418.1 314.5,418.3 315.5,418.4 316.5,418.6 317.4,418.7 318.4,418.8 319.4,419.0 320.3,419.1 321.3,419.3 322.3,419.4 323.2,419.5 324.2,419.6 325.1,419.8 326.1,419.9 327.1,420.0 328.0,420.1 329.0,420.2 329.9,420.3 330.9,420.5 331.9,420.6 332.8,420.7 333.8,420.8 334.8,420.9 335.7,421.0 336.7,421.0 337.6,421.1 338.6,421.2 339.6,421.3 340.5,421.4 341.5,421.5 342.5,421.6 343.4,421.7 344.4,421.7 345.4,421.8 346.3,421.9 347.3,422.0 348.2,422.0 349.2,422.1 350.2,422.2 351.1,422.2 352.1,422.3 353.0,422.4 354.0,422.4 355.0,422.5 355.9,422.6 356.9,422.6 357.9,422.7 358.8,422.7 359.8,422.8 360.8,422.8 361.7,422.9 362.7,422.9 363.6,423.0 364.6,423.0 365.6,423.1 366.5,423.1 367.5,423.2 368.4,423.2 369.4,423.3 370.4,423.3 371.3,423.4 372.3,423.4 373.3,423.4 374.2,423.5 375.2,423.5 376.1,423.6 377.1,423.6 378.1,423.6 379.0,423.7 380.0,423.7 381.0,423.8 381.9,423.8 382.9,423.8 383.9,423.9 384.8,423.9 385.8,423.9 386.7,424.0 387.7,424.0 388.7,424.0 389.6,424.0 390.6,424.1 391.5,424.1 392.5,424.1 393.5,424.2 394.4,424.2 395.4,424.2 396.4,424.2 397.3,424.3 398.3,424.3 399.2,424.3 400.2,424.3 401.2,424.4 402.1,424.4 403.1,424.4 404.1,424.4 405.0,424.5 406.0,424.5 406.9,424.5 407.9,424.5 408.9,424.6 409.8,424.6 410.8,424.6 411.8,424.6 412.7,424.7 413.7,424.7 414.7,424.7 415.6,424.7 416.6,424.7 417.5,424.8 418.5,424.8 419.5,424.8 420.4,424.8 421.4,424.8 422.3,424.9 423.3,424.9 424.3,424.9 425.2,424.9 426.2,424.9 427.2,425.0 428.1,425.0 429.1,425.0 430.0,425.0 431.0,425.1 432.0,425.1 432.9,425.1 433.9,425.1 434.9,425.1 435.8,425.2 436.8,425.2 437.7,425.2 438.7,425.2 439.7,425.2 440.6,425.3 441.6,425.3 442.6,425.3 443.5,425.3 444.5,425.3 445.4,425.4 446.4,425.4 447.4,425.4 448.3,425.4 449.3,425.5 450.3,425.5 451.2,425.5 452.2,425.5 453.1,425.6 454.1,425.6 455.1,425.6 456.0,425.6 457.0,425.7 458.0,425.7 458.9,425.7 459.9,425.7 460.9,425.8 461.8,425.8 462.8,425.8 463.7,425.8 464.7,425.9 465.7,425.9 466.6,425.9 467.6,426.0 468.6,426.0 469.5,426.0 470.5,426.0 471.4,426.1 472.4,426.1 473.4,426.1 474.3,426.2 475.3,426.2 476.2,426.2 477.2,426.3 478.2,426.3 479.1,426.4 480.1,426.4 481.1,426.4 482.0,426.5 483.0,426.5 484.0,426.5 484.9,426.6 485.9,426.6 486.8,426.7 487.8,426.7 488.8,426.8 489.7,426.8 490.7,426.9 491.6,426.9 492.6,427.0 493.6,427.0 494.5,427.1 495.5,427.1 496.5,427.2 497.4,427.2 498.4,427.3 499.3,427.3 500.3,427.4 501.3,427.4 502.2,427.5 503.2,427.6 504.2,427.6 505.1,427.7 506.1,427.8 507.0,427.8 508.0,427.9 509.0,428.0 509.9,428.0 510.9,428.1 511.9,428.2 512.8,428.3 513.8,428.3 514.8,428.4 515.7,428.5 516.7,428.6 517.6,428.7 518.6,428.8 519.6,428.8 520.5,428.9 521.5,429.0 522.4,429.1 523.4,429.2 524.4,429.3 525.3,429.4 526.3,429.5 527.3,429.6 528.2,429.7 529.2,429.8 530.1,430.0 531.1,430.1 532.1,430.2 533.0,430.3 534.0,430.4 535.0,430.6 535.9,430.7 536.9,430.8 537.9,431.0 538.8,431.1 539.8,431.2 540.7,431.4 541.7,431.5 542.7,431.7 543.6,431.8 544.6,432.0 545.5,432.1 546.5,432.3 547.5,432.5 548.4,432.6 549.4,432.8 550.4,433.0 551.3,433.2 552.3,433.3 553.2,433.5 554.2,433.7 555.2,433.9 556.1,434.1 557.1,434.3 558.1,434.5 559.0,434.7 560.0,434.9 560.9,435.2 561.9,435.4 562.9,435.6 563.8,435.8 564.8,436.1 565.8,436.3 566.7,436.6 567.7,436.8 568.6,437.1 569.6,437.3 570.6,437.6 571.5,437.9 572.5,438.1 573.5,438.4 574.4,438.7 575.4,439.0 576.4,439.3 577.3,439.6 578.3,439.9 579.2,440.2 580.2,440.5 581.2,440.8 582.1,441.1 583.1,441.5 584.0,441.8 585.0,442.1 586.0,442.5 586.9,442.8 587.9,443.2 588.9,443.5 589.8,443.9 590.8,444.3 591.7,444.7 592.7,445.1 593.7,445.5 594.6,445.9 595.6,446.3 596.6,446.7 597.5,447.1 598.5,447.5 599.4,447.9 600.4,448.4 601.4,448.8 602.3,449.3 603.3,449.7 604.3,450.2 605.2,450.7 606.2,451.2 607.2,451.7 608.1,452.2 609.1,452.7 610.0,453.2 611.0,453.7 612.0,454.2 612.9,454.8 613.9,455.3 614.8,455.9 615.8,456.5 616.8,457.0 617.7,457.6 618.7,458.2 619.7,458.8 620.6,459.4 621.6,460.1 622.5,460.7 623.5,461.4 624.5,462.0 625.4,462.7 626.4,463.4 627.4,464.1 628.3,464.8 629.3,465.5 630.2,466.2 631.2,467.0 632.2,467.7 633.1,468.5 634.1,469.2 635.1,470.0 636.0,470.8 637.0,471.7 637.9,472.5 638.9,473.3 639.9,474.2 640.8,475.1 641.8,476.0 642.8,476.9 643.7,477.8 644.7,478.7 645.6,479.6 646.6,480.6 647.6,481.6 648.5,482.6 649.5,483.6 650.5,484.6 651.4,485.6 652.4,486.7 653.4,487.7 654.3,488.8 655.3,489.9 656.2,491.0 657.2,492.1 658.2,493.3 659.1,494.4 660.1,495.6 661.1,496.8 662.0,498.0 663.0,499.2 663.9,500.4 664.9,501.6 665.9,502.9 666.8,504.1 667.8,505.4 668.7,506.7 669.7,508.0 670.7,509.3 671.6,510.6 672.6,512.0 673.6,513.3 674.5,514.7 675.5,516.0 676.5,517.4 677.4,518.8 678.4,520.0 679.3,520.0 680.3,520.0 681.3,520.0 682.2,520.0 683.2,520.0 684.1,520.0 685.1,520.0 686.1,520.0 687.0,520.0 688.0,520.0 689.0,520.0 689.9,520.0 690.9,520.0 691.8,520.0 692.8,520.0 693.8,520.0 694.7,520.0 695.7,520.0 696.7,520.0 697.6,520.0 698.6,520.0 699.5,520.0 700.5,520.0 701.5,520.0 702.4,520.0 703.4,520.0 704.4,520.0 705.3,520.0 706.3,520.0 707.3,520.0 708.2,520.0 709.2,520.0 710.1,520.0 711.1,520.0 712.1,520.0 713.0,520.0 714.0,520.0 714.9,520.0 715.9,520.0 716.9,520.0 717.8,520.0 718.8,520.0 719.8,520.0 720.7,520.0 721.7,520.0 722.6,520.0 723.6,520.0 724.6,520.0 725.5,520.0 726.5,520.0 727.5,520.0 728.4,520.0 729.4,520.0 730.4,520.0 731.3,520.0 732.3,520.0 733.2,520.0 734.2,520.0 735.2,520.0 736.1,520.0 737.1,520.0 738.0,520.0 739.0,520.0 740.0,520.0 740.9,520.0 741.9,520.0 742.9,520.0 743.8,520.0 744.8,520.0 745.8,520.0 746.7,520.0 747.7,520.0 748.6,520.0 749.6,520.0 750.6,520.0 751.5,520.0 752.5,520.0 753.4,520.0 754.4,520.0 755.4,520.0 756.3,520.0 757.3,520.0 758.3,520.0 759.2,520.0 760.2,520.0 761.1,520.0 762.1,520.0 763.1,520.0 764.0,520.0 765.0,520.0 766.0,520.0 766.9,520.0 767.9,520.0 768.9,520.0 769.8,520.0 770.8,520.0 771.7,520.0 772.7,520.0 773.7,520.0 774.6,520.0 775.6,520.0 776.5,520.0 777.5,520.0 778.5,520.0 779.4,520.0 780.4,520.0 781.4,520.0 782.3,520.0 783.3,520.0 784.2,520.0 785.2,520.0 786.2,520.0 787.1,520.0 788.1,520.0 789.1,520.0 790.0,520.0 791.0,520.0 791.9,520.0 792.9,520.0 793.9,520.0 794.8,520.0 795.8,520.0 796.8,520.0 797.7,520.0 798.7,520.0 799.7,520.0 800.6,520.0 801.6,520.0 802.5,520.0 803.5,520.0 804.5,520.0 805.4,520.0 806.4,520.0 807.3,520.0 808.3,520.0 809.3,520.0 810.2,520.0 811.2,520.0 812.2,520.0 813.1,520.0 814.1,520.0 815.0,520.0 816.0,520.0 817.0,520.0 817.9,520.0 818.9,520.0 819.9,520.0 820.8,520.0 821.8,520.0 822.7,520.0 823.7,520.0 824.7,520.0 825.6,520.0 826.6,520.0 827.6,520.0 828.5,520.0 829.5,520.0 830.4,520.0 831.4,520.0 832.4,520.0 833.3,520.0 834.3,520.0 835.3,520.0 836.2,520.0 837.2,520.0 838.1,520.0 839.1,520.0 840.1,520.0 841.0,520.0 842.0,520.0" fill="none" stroke="#1f5c99" stroke-width="1.6" stroke-linejoin="round"/>
<polyline points="72.0,331.6 73.0,331.7 73.9,331.7 74.9,331.7 75.9,331.8 76.8,331.8 77.8,331.8 78.7,331.9 79.7,331.9 80.7,332.0 81.6,332.0 82.6,332.0 83.6,332.1 84.5,332.1 85.5,332.2 86.4,332.2 87.4,332.3 88.4,332.3 89.3,332.4 90.3,332.4 91.2,332.5 92.2,332.5 93.2,332.6 94.1,332.7 95.1,332.7 96.1,332.8 97.0,332.8 98.0,332.9 99.0,333.0 99.9,333.0 100.9,333.1 101.8,333.2 102.8,333.2 103.8,333.3 104.7,333.4 105.7,333.5 106.6,333.6 107.6,333.6 108.6,333.7 109.5,333.8 110.5,333.9 111.5,334.0 112.4,334.1 113.4,334.2 114.3,334.3 115.3,334.3 116.3,334.4 117.2,334.5 118.2,334.7 119.2,334.8 120.1,334.9 121.1,335.0 122.0,335.1 123.0,335.2 124.0,335.3 124.9,335.5 125.9,335.6 126.9,335.7 127.8,335.8 128.8,336.0 129.8,336.1 130.7,336.2 131.7,336.4 132.6,336.5 133.6,336.7 134.6,336.8 135.5,337.0 136.5,337.2 137.4,337.3 138.4,337.5 139.4,337.7 140.3,337.8 141.3,338.0 142.3,338.2 143.2,338.4 144.2,338.6 145.1,338.8 146.1,339.0 147.1,339.2 148.0,339.4 149.0,339.6 150.0,339.8 150.9,340.0 151.9,340.3 152.9,340.5 153.8,340.8 154.8,341.0 155.7,341.2 156.7,341.5 157.7,341.8 158.6,342.0 159.6,342.3 160.5,342.6 161.5,342.9 162.5,343.2 163.4,343.4 164.4,343.8 165.4,344.1 166.3,344.4 167.3,344.7 168.2,345.0 169.2,345.4 170.2,345.7 171.1,346.1 172.1,346.4 173.1,346.8 174.0,347.1 175.0,347.5 175.9,347.9 176.9,348.3 177.9,348.7 178.8,349.1 179.8,349.5 180.8,349.9 181.7,350.4 182.7,350.8 183.6,351.3 184.6,351.7 185.6,352.2 186.5,352.7 187.5,353.1 188.5,353.6 189.4,354.1 190.4,354.6 191.4,355.1 192.3,355.7 193.3,356.2 194.2,356.7 195.2,357.3 196.2,357.8 197.1,358.4 198.1,358.9 199.0,359.5 200.0,360.1 201.0,360.7 201.9,361.3 202.9,361.9 203.9,362.5 204.8,363.1 205.8,363.7 206.7,364.4 207.7,365.0 208.7,365.7 209.6,366.3 210.6,367.0 211.6,367.6 212.5,368.3 213.5,369.0 214.4,369.6 215.4,370.3 216.4,371.0 217.3,371.7 218.3,372.4 219.3,373.0 220.2,373.7 221.2,374.4 222.2,375.1 223.1,375.8 224.1,376.5 225.0,377.2 226.0,377.9 227.0,378.6 227.9,379.3 228.9,380.0 229.8,380.7 230.8,381.4 231.8,382.1 232.7,382.8 233.7,383.5 234.7,384.2 235.6,384.8 236.6,385.5 237.5,386.2 238.5,386.9 239.5,387.5 240.4,388.2 241.4,388.8 242.4,389.5 243.3,390.1 244.3,390.7 245.2,391.4 246.2,392.0 247.2,392.6 248.1,393.2 249.1,393.8 250.1,394.4 251.0,395.0 252.0,395.6 252.9,396.2 253.9,396.7 254.9,397.3 255.8,397.8 256.8,398.4 257.8,398.9 258.7,399.4 259.7,400.0 260.6,400.5 261.6,401.0 262.6,401.5 263.5,401.9 264.5,402.4 265.5,402.9 266.4,403.4 267.4,403.8 268.4,404.3 269.3,404.7 270.3,405.1 271.2,405.5 272.2,406.0 273.2,406.4 274.1,406.8 275.1,407.2 276.1,407.5 277.0,407.9 278.0,408.3 278.9,408.6 279.9,409.0 280.9,409.3 281.8,409.7 282.8,410.0 283.7,410.4 284.7,410.7 285.7,411.0 286.6,411.3 287.6,411.6 288.6,411.9 289.5,412.2 290.5,412.5 291.5,412.7 292.4,413.0 293.4,413.3 294.3,413.5 295.3,413.8 296.3,414.0 297.2,414.3 298.2,414.5 299.1,414.8 300.1,415.0 301.1,415.2 302.0,415.4 303.0,415.7 304.0,415.9 304.9,416.1 305.9,416.3 306.8,416.5 307.8,416.7 308.8,416.8 309.7,417.0 310.7,417.2 311.7,417.4 312.6,417.6 313.6,417.7 314.5,417.9 315.5,418.0 316.5,418.2 317.4,418.4 318.4,418.5 319.4,418.7 320.3,418.8 321.3,418.9 322.3,419.1 323.2,419.2 324.2,419.3 325.1,419.5 326.1,419.6 327.1,419.7 328.0,419.8 329.0,420.0 329.9,420.1 330.9,420.2 331.9,420.3 332.8,420.4 333.8,420.5 334.8,420.6 335.7,420.7 336.7,420.8 337.6,420.9 338.6,421.0 339.6,421.1 340.5,421.2 341.5,421.3 342.5,421.4 343.4,421.4 344.4,421.5 345.4,421.6 346.3,421.7 347.3,421.7 348.2,421.8 349.2,421.9 350.2,422.0 351.1,422.0 352.1,422.1 353.0,422.2 354.0,422.2 355.0,422.3 355.9,422.4 356.9,422.4 357.9,422.5 358.8,422.5 359.8,422.6 360.8,422.7 361.7,422.7 362.7,422.8 363.6,422.8 364.6,422.9 365.6,422.9 366.5,423.0 367.5,423.0 368.4,423.1 369.4,423.1 370.4,423.1 371.3,423.2 372.3,423.2 373.3,423.3 374.2,423.3 375.2,423.4 376.1,423.4 377.1,423.4 378.1,423.5 379.0,423.5 380.0,423.5 381.0,423.6 381.9,423.6 382.9,423.6 383.9,423.7 384.8,423.7 385.8,423.7 386.7,423.8 387.7,423.8 388.7,423.8 389.6,423.9 390.6,423.9 391.5,423.9 392.5,423.9 393.5,424.0 394.4,424.0 395.4,424.0 396.4,424.0 397.3,424.1 398.3,424.1 399.2,424.1 400.2,424.1 401.2,424.2 402.1,424.2 403.1,424.2 404.1,424.2 405.0,424.2 406.0,424.3 406.9,424.3 407.9,424.3 408.9,424.3 409.8,424.3 410.8,424.4 411.8,424.4 412.7,424.4 413.7,424.4 414.7,424.4 415.6,424.4 416.6,424.5 417.5,424.5 418.5,424.5 419.5,424.5 420.4,424.5 421.4,424.5 422.3,424.5 423.3,424.6 424.3,424.6 425.2,424.6 426.2,424.6 427.2,424.6 428.1,424.6 429.1,424.6 430.0,424.7 431.0,424.7 432.0,424.7 432.9,424.7 433.9,424.7 434.9,424.7 435.8,424.7 436.8,424.7 437.7,424.8 438.7,424.8 439.7,424.8 440.6,424.8 441.6,424.8 442.6,424.8 443.5,424.8 444.5,424.8 445.4,424.8 446.4,424.9 447.4,424.9 448.3,424.9 449.3,424.9 450.3,424.9 451.2,424.9 452.2,424.9 453.1,424.9 454.1,424.9 455.1,425.0 456.0,425.0 457.0,425.0 458.0,425.0 458.9,425.0 459.9,425.0 460.9,425.0 461.8,425.0 462.8,425.0 463.7,425.0 464.7,425.1 465.7,425.1 466.6,425.1 467.6,425.1 468.6,425.1 469.5,425.1 470.5,425.1 471.4,425.1 472.4,425.1 473.4,425.2 474.3,425.2 475.3,425.2 476.2,425.2 477.2,425.2 478.2,425.2 479.1,425.2 480.1,425.2 481.1,425.2 482.0,425.3 483.0,425.3 484.0,425.3 484.9,425.3 485.9,425.3 486.8,425.3 487.8,425.3 488.8,425.3 489.7,425.4 490.7,425.4 491.6,425.4 492.6,425.4 493.6,425.4 494.5,425.4 495.5,425.4 496.5,425.5 497.4,425.5 498.4,425.5 499.3,425.5 500.3,425.5 501.3,425.5 502.2,425.5 503.2,425.6 504.2,425.6 505.1,425.6 506.1,425.6 507.0,425.6 508.0,425.7 509.0,425.7 509.9,425.7 510.9,425.7 511.9,425.7 512.8,425.8 513.8,425.8 514.8,425.8 515.7,425.8 516.7,425.8 517.6,425.9 518.6,425.9 519.6,425.9 520.5,425.9 521.5,426.0 522.4,426.0 523.4,426.0 524.4,426.0 525.3,426.1 526.3,426.1 527.3,426.1 528.2,426.2 529.2,426.2 530.1,426.2 531.1,426.3 532.1,426.3 533.0,426.3 534.0,426.4 535.0,426.4 535.9,426.4 536.9,426.5 537.9,426.5 538.8,426.6 539.8,426.6 540.7,426.6 541.7,426.7 542.7,426.7 543.6,426.8 544.6,426.8 545.5,426.9 546.5,426.9 547.5,427.0 548.4,427.1 549.4,427.1 550.4,427.2 551.3,427.2 552.3,427.3 553.2,427.4 554.2,427.4 555.2,427.5 556.1,427.6 557.1,427.7 558.1,427.7 559.0,427.8 560.0,427.9 560.9,428.0 561.9,428.1 562.9,428.2 563.8,428.3 564.8,428.4 565.8,428.5 566.7,428.6 567.7,428.7 568.6,428.9 569.6,429.0 570.6,429.1 571.5,429.2 572.5,429.4 573.5,429.5 574.4,429.7 575.4,429.8 576.4,430.0 577.3,430.2 578.3,430.4 579.2,430.5 580.2,430.7 581.2,430.9 582.1,431.1 583.1,431.3 584.0,431.6 585.0,431.8 586.0,432.0 586.9,432.3 587.9,432.5 588.9,432.8 589.8,433.1 590.8,433.4 591.7,433.7 592.7,434.0 593.7,434.3 594.6,434.6 595.6,435.0 596.6,435.3 597.5,435.7 598.5,436.1 599.4,436.5 600.4,436.9 601.4,437.3 602.3,437.7 603.3,438.2 604.3,438.6 605.2,439.1 606.2,439.6 607.2,440.1 608.1,440.6 609.1,441.1 610.0,441.7 611.0,442.2 612.0,442.8 612.9,443.4 613.9,444.0 614.8,444.6 615.8,445.2 616.8,445.9 617.7,446.5 618.7,447.2 619.7,447.9 620.6,448.6 621.6,449.3 622.5,450.1 623.5,450.8 624.5,451.6 625.4,452.4 626.4,453.2 627.4,454.0 628.3,454.8 629.3,455.7 630.2,456.5 631.2,457.4 632.2,458.3 633.1,459.2 634.1,460.1 635.1,461.0 636.0,462.0 637.0,462.9 637.9,463.9 638.9,464.9 639.9,465.9 640.8,466.9 641.8,468.0 642.8,469.0 643.7,470.1 644.7,471.2 645.6,472.3 646.6,473.4 647.6,474.5 648.5,475.6 649.5,476.8 650.5,478.0 651.4,479.1 652.4,480.3 653.4,481.5 654.3,482.8 655.3,484.0 656.2,485.3 657.2,486.5 658.2,487.8 659.1,489.1 660.1,490.4 661.1,491.7 662.0,493.0 663.0,494.4 663.9,495.7 664.9,497.1 665.9,498.5 666.8,499.9 667.8,501.3 668.7,502.7 669.7,504.1 670.7,505.5 671.6,506.9 672.6,508.4 673.6,509.8 674.5,511.3 675.5,512.8 676.5,514.3 677.4,515.7 678.4,517.2 679.3,518.7 680.3,520.0 681.3,520.0 682.2,520.0 683.2,520.0 684.1,520.0 685.1,520.0 686.1,520.0 687.0,520.0 688.0,520.0 689.0,520.0 689.9,520.0 690.9,520.0 691.8,520.0 692.8,520.0 693.8,520.0 694.7,520.0 695.7,520.0 696.7,520.0 697.6,520.0 698.6,520.0 699.5,520.0 700.5,520.0 701.5,520.0 702.4,520.0 703.4,520.0 704.4,520.0 705.3,520.0 706.3,520.0 707.3,520.0 708.2,520.0 709.2,520.0 710.1,520.0 711.1,520.0 712.1,520.0 713.0,520.0 714.0,520.0 714.9,520.0 715.9,520.0 716.9,520.0 717.8,520.0 718.8,520.0 719.8,520.0 720.7,520.0 721.7,520.0 722.6,520.0 723.6,520.0 724.6,520.0 725.5,520.0 726.5,520.0 727.5,520.0 728.4,520.0 729.4,520.0 730.4,520.0 731.3,520.0 732.3,520.0 733.2,520.0 734.2,520.0 735.2,520.0 736.1,520.0 737.1,520.0 738.0,520.0 739.0,520.0 740.0,520.0 740.9,520.0 741.9,520.0 742.9,520.0 743.8,520.0 744.8,520.0 745.8,520.0 746.7,520.0 747.7,520.0 748.6,520.0 749.6,520.0 750.6,520.0 751.5,520.0 752.5,520.0 753.4,520.0 754.4,520.0 755.4,520.0 756.3,520.0 757.3,520.0 758.3,520.0 759.2,520.0 760.2,520.0 761.1,520.0 762.1,520.0 763.1,520.0 764.0,520.0 765.0,520.0 766.0,520.0 766.9,520.0 767.9,520.0 768.9,520.0 769.8,520.0 770.8,520.0 771.7,520.0 772.7,520.0 773.7,520.0 774.6,520.0 775.6,520.0 776.5,520.0 777.5,520.0 778.5,520.0 779.4,520.0 780.4,520.0 781.4,520.0 782.3,520.0 783.3,520.0 784.2,520.0 785.2,520.0 786.2,520.0 787.1,520.0 788.1,520.0 789.1,520.0 790.0,520.0 791.0,520.0 791.9,520.0 792.9,520.0 793.9,520.0 794.8,520.0 795.8,520.0 796.8,520.0 797.7,520.0 798.7,520.0 799.7,520.0 800.6,520.0 801.6,520.0 802.5,520.0 803.5,520.0 804.5,520.0 805.4,520.0 806.4,520.0 807.3,520.0 808.3,520.0 809.3,520.0 810.2,520.0 811.2,520.0 812.2,520.0 813.1,520.0 814.1,520.0 815.0,520.0 816.0,520.0 817.0,520.0 817.9,520.0 818.9,520.0 819.9,520.0 820.8,520.0 821.8,520.0 822.7,520.0 823.7,520.0 824.7,520.0 825.6,520.0 826.6,520.0 827.6,520.0 828.5,520.0 829.5,520.0 830.4,520.0 831.4,520.0 832.4,520.0 833.3,520.0 834.3,520.0 835.3,520.0 836.2,520.0 837.2,520.0 838.1,520.0 839.1,520.0 840.1,520.0 841.0,520.0 842.0,520.0" fill="none" stroke="#2e7d4f" stroke-width="1.6" stroke-linejoin="round"/>
<polyline points="72.0,331.5 73.0,331.6 73.9,331.6 74.9,331.6 75.9,331.7 76.8,331.7 77.8,331.7 78.7,331.8 79.7,331.8 80.7,331.8 81.6,331.9 82.6,331.9 83.6,332.0 84.5,332.0 85.5,332.1 86.4,332.1 87.4,332.1 88.4,332.2 89.3,332.2 90.3,332.3 91.2,332.3 92.2,332.4 93.2,332.4 94.1,332.5 95.1,332.6 96.1,332.6 97.0,332.7 98.0,332.7 99.0,332.8 99.9,332.9 100.9,332.9 101.8,333.0 102.8,333.1 103.8,333.1 104.7,333.2 105.7,333.3 106.6,333.3 107.6,333.4 108.6,333.5 109.5,333.6 110.5,333.7 111.5,333.7 112.4,333.8 113.4,333.9 114.3,334.0 115.3,334.1 116.3,334.2 117.2,334.3 118.2,334.4 119.2,334.5 120.1,334.6 121.1,334.7 122.0,334.8 123.0,334.9 124.0,335.0 124.9,335.1 125.9,335.2 126.9,335.4 127.8,335.5 128.8,335.6 129.8,335.7 130.7,335.9 131.7,336.0 132.6,336.2 133.6,336.3 134.6,336.4 135.5,336.6 136.5,336.7 137.4,336.9 138.4,337.0 139.4,337.2 140.3,337.4 141.3,337.5 142.3,337.7 143.2,337.9 144.2,338.1 145.1,338.3 146.1,338.4 147.1,338.6 148.0,338.8 149.0,339.0 150.0,339.3 150.9,339.5 151.9,339.7 152.9,339.9 153.8,340.1 154.8,340.4 155.7,340.6 156.7,340.8 157.7,341.1 158.6,341.3 159.6,341.6 160.5,341.9 161.5,342.1 162.5,342.4 163.4,342.7 164.4,343.0 165.4,343.3 166.3,343.6 167.3,343.9 168.2,344.2 169.2,344.5 170.2,344.8 171.1,345.1 172.1,345.5 173.1,345.8 174.0,346.2 175.0,346.5 175.9,346.9 176.9,347.3 177.9,347.7 178.8,348.0 179.8,348.4 180.8,348.8 181.7,349.3 182.7,349.7 183.6,350.1 184.6,350.5 185.6,351.0 186.5,351.4 187.5,351.9 188.5,352.3 189.4,352.8 190.4,353.3 191.4,353.8 192.3,354.3 193.3,354.8 194.2,355.3 195.2,355.8 196.2,356.4 197.1,356.9 198.1,357.5 199.0,358.0 200.0,358.6 201.0,359.1 201.9,359.7 202.9,360.3 203.9,360.9 204.8,361.5 205.8,362.1 206.7,362.7 207.7,363.3 208.7,364.0 209.6,364.6 210.6,365.2 211.6,365.9 212.5,366.5 213.5,367.2 214.4,367.8 215.4,368.5 216.4,369.2 217.3,369.9 218.3,370.5 219.3,371.2 220.2,371.9 221.2,372.6 222.2,373.3 223.1,374.0 224.1,374.7 225.0,375.4 226.0,376.1 227.0,376.8 227.9,377.5 228.9,378.2 229.8,378.9 230.8,379.6 231.8,380.3 232.7,381.0 233.7,381.6 234.7,382.3 235.6,383.0 236.6,383.7 237.5,384.4 238.5,385.1 239.5,385.7 240.4,386.4 241.4,387.1 242.4,387.7 243.3,388.4 244.3,389.0 245.2,389.7 246.2,390.3 247.2,391.0 248.1,391.6 249.1,392.2 250.1,392.8 251.0,393.4 252.0,394.0 252.9,394.6 253.9,395.2 254.9,395.8 255.8,396.3 256.8,396.9 257.8,397.5 258.7,398.0 259.7,398.6 260.6,399.1 261.6,399.6 262.6,400.1 263.5,400.6 264.5,401.1 265.5,401.6 266.4,402.1 267.4,402.6 268.4,403.0 269.3,403.5 270.3,403.9 271.2,404.4 272.2,404.8 273.2,405.3 274.1,405.7 275.1,406.1 276.1,406.5 277.0,406.9 278.0,407.3 278.9,407.7 279.9,408.0 280.9,408.4 281.8,408.8 282.8,409.1 283.7,409.5 284.7,409.8 285.7,410.1 286.6,410.4 287.6,410.8 288.6,411.1 289.5,411.4 290.5,411.7 291.5,412.0 292.4,412.3 293.4,412.5 294.3,412.8 295.3,413.1 296.3,413.4 297.2,413.6 298.2,413.9 299.1,414.1 300.1,414.4 301.1,414.6 302.0,414.8 303.0,415.1 304.0,415.3 304.9,415.5 305.9,415.7 306.8,415.9 307.8,416.1 308.8,416.3 309.7,416.5 310.7,416.7 311.7,416.9 312.6,417.1 313.6,417.2 314.5,417.4 315.5,417.6 316.5,417.8 317.4,417.9 318.4,418.1 319.4,418.2 320.3,418.4 321.3,418.5 322.3,418.7 323.2,418.8 324.2,419.0 325.1,419.1 326.1,419.2 327.1,419.4 328.0,419.5 329.0,419.6 329.9,419.7 330.9,419.8 331.9,420.0 332.8,420.1 333.8,420.2 334.8,420.3 335.7,420.4 336.7,420.5 337.6,420.6 338.6,420.7 339.6,420.8 340.5,420.9 341.5,421.0 342.5,421.1 343.4,421.2 344.4,421.2 345.4,421.3 346.3,421.4 347.3,421.5 348.2,421.6 349.2,421.6 350.2,421.7 351.1,421.8 352.1,421.9 353.0,421.9 354.0,422.0 355.0,422.1 355.9,422.1 356.9,422.2 357.9,422.3 358.8,422.3 359.8,422.4 360.8,422.4 361.7,422.5 362.7,422.5 363.6,422.6 364.6,422.6 365.6,422.7 366.5,422.7 367.5,422.8 368.4,422.8 369.4,422.9 370.4,422.9 371.3,423.0 372.3,423.0 373.3,423.1 374.2,423.1 375.2,423.1 376.1,423.2 377.1,423.2 378.1,423.3 379.0,423.3 380.0,423.3 381.0,423.4 381.9,423.4 382.9,423.4 383.9,423.5 384.8,423.5 385.8,423.5 386.7,423.5 387.7,423.6 388.7,423.6 389.6,423.6 390.6,423.7 391.5,423.7 392.5,423.7 393.5,423.7 394.4,423.7 395.4,423.8 396.4,423.8 397.3,423.8 398.3,423.8 399.2,423.9 400.2,423.9 401.2,423.9 402.1,423.9 403.1,423.9 404.1,423.9 405.0,424.0 406.0,424.0 406.9,424.0 407.9,424.0 408.9,424.0 409.8,424.0 410.8,424.1 411.8,424.1 412.7,424.1 413.7,424.1 414.7,424.1 415.6,424.1 416.6,424.1 417.5,424.1 418.5,424.1 419.5,424.1 420.4,424.2 421.4,424.2 422.3,424.2 423.3,424.2 424.3,424.2 425.2,424.2 426.2,424.2 427.2,424.2 428.1,424.2 429.1,424.2 430.0,424.2 431.0,424.2 432.0,424.2 432.9,424.2 433.9,424.2 434.9,424.2 435.8,424.2 436.8,424.2 437.7,424.2 438.7,424.2 439.7,424.2 440.6,424.2 441.6,424.2 442.6,424.2 443.5,424.2 444.5,424.2 445.4,424.2 446.4,424.2 447.4,424.2 448.3,424.2 449.3,424.2 450.3,424.2 451.2,424.2 452.2,424.2 453.1,424.2 454.1,424.2 455.1,424.2 456.0,424.2 457.0,424.2 458.0,424.2 458.9,424.2 459.9,424.2 460.9,424.1 461.8,424.1 462.8,424.1 463.7,424.1 464.7,424.1 465.7,424.1 466.6,424.1 467.6,424.1 468.6,424.1 469.5,424.0 470.5,424.0 471.4,424.0 472.4,424.0 473.4,424.0 474.3,424.0 475.3,424.0 476.2,423.9 477.2,423.9 478.2,423.9 479.1,423.9 480.1,423.9 481.1,423.8 482.0,423.8 483.0,423.8 484.0,423.8 484.9,423.8 485.9,423.7 486.8,423.7 487.8,423.7 488.8,423.7 489.7,423.6 490.7,423.6 491.6,423.6 492.6,423.6 493.6,423.5 494.5,423.5 495.5,423.5 496.5,423.4 497.4,423.4 498.4,423.4 499.3,423.3 500.3,423.3 501.3,423.3 502.2,423.2 503.2,423.2 504.2,423.2 505.1,423.1 506.1,423.1 507.0,423.0 508.0,423.0 509.0,423.0 509.9,422.9 510.9,422.9 511.9,422.8 512.8,422.8 513.8,422.7 514.8,422.7 515.7,422.6 516.7,422.6 517.6,422.5 518.6,422.5 519.6,422.4 520.5,422.4 521.5,422.3 522.4,422.3 523.4,422.2 524.4,422.1 525.3,422.1 526.3,422.0 527.3,422.0 528.2,421.9 529.2,421.8 530.1,421.8 531.1,421.7 532.1,421.6 533.0,421.6 534.0,421.5 535.0,421.4 535.9,421.3 536.9,421.3 537.9,421.2 538.8,421.1 539.8,421.0 540.7,420.9 541.7,420.9 542.7,420.8 543.6,420.7 544.6,420.6 545.5,420.5 546.5,420.4 547.5,420.3 548.4,420.2 549.4,420.1 550.4,420.1 551.3,420.0 552.3,419.9 553.2,419.8 554.2,419.7 555.2,419.6 556.1,419.5 557.1,419.4 558.1,419.3 559.0,419.2 560.0,419.1 560.9,419.0 561.9,418.9 562.9,418.8 563.8,418.7 564.8,418.6 565.8,418.5 566.7,418.4 567.7,418.3 568.6,418.2 569.6,418.1 570.6,418.0 571.5,417.9 572.5,417.8 573.5,417.7 574.4,417.6 575.4,417.6 576.4,417.5 577.3,417.4 578.3,417.3 579.2,417.3 580.2,417.2 581.2,417.2 582.1,417.1 583.1,417.1 584.0,417.0 585.0,417.0 586.0,417.0 586.9,416.9 587.9,416.9 588.9,416.9 589.8,416.9 590.8,416.9 591.7,417.0 592.7,417.0 593.7,417.1 594.6,417.1 595.6,417.2 596.6,417.3 597.5,417.4 598.5,417.5 599.4,417.6 600.4,417.7 601.4,417.9 602.3,418.1 603.3,418.3 604.3,418.5 605.2,418.7 606.2,418.9 607.2,419.2 608.1,419.5 609.1,419.8 610.0,420.1 611.0,420.4 612.0,420.8 612.9,421.2 613.9,421.6 614.8,422.0 615.8,422.5 616.8,423.0 617.7,423.5 618.7,424.0 619.7,424.5 620.6,425.1 621.6,425.7 622.5,426.3 623.5,427.0 624.5,427.7 625.4,428.4 626.4,429.1 627.4,429.8 628.3,430.6 629.3,431.4 630.2,432.3 631.2,433.1 632.2,434.0 633.1,434.9 634.1,435.9 635.1,436.8 636.0,437.8 637.0,438.9 637.9,439.9 638.9,441.0 639.9,442.1 640.8,443.2 641.8,444.4 642.8,445.5 643.7,446.7 644.7,448.0 645.6,449.2 646.6,450.5 647.6,451.8 648.5,453.1 649.5,454.5 650.5,455.8 651.4,457.2 652.4,458.6 653.4,460.1 654.3,461.5 655.3,463.0 656.2,464.5 657.2,466.0 658.2,467.5 659.1,469.1 660.1,470.7 661.1,472.2 662.0,473.8 663.0,475.5 663.9,477.1 664.9,478.7 665.9,480.4 666.8,482.1 667.8,483.7 668.7,485.4 669.7,487.1 670.7,488.9 671.6,490.6 672.6,492.3 673.6,494.1 674.5,495.8 675.5,497.6 676.5,499.3 677.4,501.1 678.4,502.9 679.3,504.6 680.3,506.4 681.3,508.2 682.2,510.0 683.2,511.8 684.1,513.5 685.1,515.3 686.1,517.1 687.0,518.9 688.0,520.0 689.0,520.0 689.9,520.0 690.9,520.0 691.8,520.0 692.8,520.0 693.8,520.0 694.7,520.0 695.7,520.0 696.7,520.0 697.6,520.0 698.6,520.0 699.5,520.0 700.5,520.0 701.5,520.0 702.4,520.0 703.4,520.0 704.4,520.0 705.3,520.0 706.3,520.0 707.3,520.0 708.2,520.0 709.2,520.0 710.1,520.0 711.1,520.0 712.1,520.0 713.0,520.0 714.0,520.0 714.9,520.0 715.9,520.0 716.9,520.0 717.8,520.0 718.8,520.0 719.8,520.0 720.7,520.0 721.7,520.0 722.6,520.0 723.6,520.0 724.6,520.0 725.5,520.0 726.5,520.0 727.5,520.0 728.4,520.0 729.4,520.0 730.4,520.0 731.3,520.0 732.3,520.0 733.2,520.0 734.2,520.0 735.2,520.0 736.1,520.0 737.1,520.0 738.0,520.0 739.0,520.0 740.0,520.0 740.9,520.0 741.9,520.0 742.9,520.0 743.8,520.0 744.8,520.0 745.8,520.0 746.7,520.0 747.7,520.0 748.6,520.0 749.6,520.0 750.6,520.0 751.5,520.0 752.5,520.0 753.4,520.0 754.4,520.0 755.4,520.0 756.3,520.0 757.3,520.0 758.3,520.0 759.2,520.0 760.2,520.0 761.1,520.0 762.1,520.0 763.1,520.0 764.0,520.0 765.0,520.0 766.0,520.0 766.9,520.0 767.9,520.0 768.9,520.0 769.8,520.0 770.8,520.0 771.7,520.0 772.7,520.0 773.7,520.0 774.6,520.0 775.6,520.0 776.5,520.0 777.5,520.0 778.5,520.0 779.4,520.0 780.4,520.0 781.4,520.0 782.3,520.0 783.3,520.0 784.2,520.0 785.2,520.0 786.2,520.0 787.1,520.0 788.1,520.0 789.1,520.0 790.0,520.0 791.0,520.0 791.9,520.0 792.9,520.0 793.9,520.0 794.8,520.0 795.8,520.0 796.8,520.0 797.7,520.0 798.7,520.0 799.7,520.0 800.6,520.0 801.6,520.0 802.5,520.0 803.5,520.0 804.5,520.0 805.4,520.0 806.4,520.0 807.3,520.0 808.3,520.0 809.3,520.0 810.2,520.0 811.2,520.0 812.2,520.0 813.1,520.0 814.1,520.0 815.0,520.0 816.0,520.0 817.0,520.0 817.9,520.0 818.9,520.0 819.9,520.0 820.8,520.0 821.8,520.0 822.7,520.0 823.7,520.0 824.7,520.0 825.6,520.0 826.6,520.0 827.6,520.0 828.5,520.0 829.5,520.0 830.4,520.0 831.4,520.0 832.4,520.0 833.3,520.0 834.3,520.0 835.3,520.0 836.2,520.0 837.2,520.0 838.1,520.0 839.1,520.0 840.1,520.0 841.0,520.0 842.0,520.0" fill="none" stroke="#a8452a" stroke-width="1.6" stroke-linejoin="round"/>
<circle cx="612.4" cy="454.5" r="3.2" fill="#ffffff" stroke="#333333" stroke-width="1.4"/>
<text x="620.4" y="446.5" text-anchor="start" font-size="11" fill="#333333">62,09°</text>
<circle cx="606.1" cy="439.6" r="3.2" fill="#ffffff" stroke="#333333" stroke-width="1.4"/>
<text x="614.1" y="431.6" text-anchor="start" font-size="11" fill="#333333">76,21°</text>
<circle cx="570.9" cy="418.0" r="3.2" fill="#ffffff" stroke="#333333" stroke-width="1.4"/>
<text x="578.9" y="410.0" text-anchor="start" font-size="11" fill="#333333">96,66°</text>
<rect x="72" y="330" width="770" height="190" fill="none" stroke="#333333" stroke-width="1.2"/>
<line x1="72.0" y1="520" x2="72.0" y2="525" stroke="#333333" stroke-width="1.2"/>
<text x="72.0" y="538" text-anchor="middle" font-size="11" fill="#333333">1</text>
<line x1="168.2" y1="520" x2="168.2" y2="525" stroke="#333333" stroke-width="1.2"/>
<text x="168.2" y="538" text-anchor="middle" font-size="11" fill="#333333">10</text>
<line x1="264.5" y1="520" x2="264.5" y2="525" stroke="#333333" stroke-width="1.2"/>
<text x="264.5" y="538" text-anchor="middle" font-size="11" fill="#333333">100</text>
<line x1="360.8" y1="520" x2="360.8" y2="525" stroke="#333333" stroke-width="1.2"/>
<text x="360.8" y="538" text-anchor="middle" font-size="11" fill="#333333">1k</text>
<line x1="457.0" y1="520" x2="457.0" y2="525" stroke="#333333" stroke-width="1.2"/>
<text x="457.0" y="538" text-anchor="middle" font-size="11" fill="#333333">10k</text>
<line x1="553.2" y1="520" x2="553.2" y2="525" stroke="#333333" stroke-width="1.2"/>
<text x="553.2" y="538" text-anchor="middle" font-size="11" fill="#333333">100k</text>
<line x1="649.5" y1="520" x2="649.5" y2="525" stroke="#333333" stroke-width="1.2"/>
<text x="649.5" y="538" text-anchor="middle" font-size="11" fill="#333333">1M</text>
<line x1="745.8" y1="520" x2="745.8" y2="525" stroke="#333333" stroke-width="1.2"/>
<text x="745.8" y="538" text-anchor="middle" font-size="11" fill="#333333">10M</text>
<line x1="842.0" y1="520" x2="842.0" y2="525" stroke="#333333" stroke-width="1.2"/>
<text x="842.0" y="538" text-anchor="middle" font-size="11" fill="#333333">100M</text>
<line x1="67" y1="520.0" x2="72" y2="520.0" stroke="#333333" stroke-width="1.2"/>
<text x="63" y="524.0" text-anchor="end" font-size="11" fill="#333333">0</text>
<line x1="67" y1="488.3" x2="72" y2="488.3" stroke="#333333" stroke-width="1.2"/>
<text x="63" y="492.3" text-anchor="end" font-size="11" fill="#333333">30</text>
<line x1="67" y1="456.7" x2="72" y2="456.7" stroke="#333333" stroke-width="1.2"/>
<text x="63" y="460.7" text-anchor="end" font-size="11" fill="#333333">60</text>
<line x1="67" y1="425.0" x2="72" y2="425.0" stroke="#333333" stroke-width="1.2"/>
<text x="63" y="429.0" text-anchor="end" font-size="11" fill="#333333">90</text>
<line x1="67" y1="393.3" x2="72" y2="393.3" stroke="#333333" stroke-width="1.2"/>
<text x="63" y="397.3" text-anchor="end" font-size="11" fill="#333333">120</text>
<line x1="67" y1="361.7" x2="72" y2="361.7" stroke="#333333" stroke-width="1.2"/>
<text x="63" y="365.7" text-anchor="end" font-size="11" fill="#333333">150</text>
<line x1="67" y1="330.0" x2="72" y2="330.0" stroke="#333333" stroke-width="1.2"/>
<text x="63" y="334.0" text-anchor="end" font-size="11" fill="#333333">180</text>
<text x="24" y="425.0" text-anchor="middle" font-size="12" fill="#333333" transform="rotate(-90 24 425.0)">fase di T [gradi]</text>
<text x="457.0" y="556" text-anchor="middle" font-size="12" fill="#333333">frequenza [Hz]</text>
<line x1="80" y1="574" x2="102" y2="574" stroke="#1f5c99" stroke-width="2.2"/>
<text x="108" y="578" font-size="11" fill="#333333">0 dB · cavo 4,7 nF</text>
<line x1="350" y1="574" x2="372" y2="574" stroke="#2e7d4f" stroke-width="2.2"/>
<text x="378" y="578" font-size="11" fill="#333333">+3 dB · cavo 4,7 nF</text>
<line x1="620" y1="574" x2="642" y2="574" stroke="#a8452a" stroke-width="2.2"/>
<text x="648" y="578" font-size="11" fill="#333333">+10 dB · cavo 4,7 nF</text>
<text x="12" y="610" font-size="11" fill="#666666">Dati: L42 tb_loop_att2k5_*.csv · margine = |fase| dove |T| attraversa 0 dB (G2 è l'ingresso invertente)</text>
</svg>
